<svg width="64" height="64" viewBox="0 0 64 64" fill="none" xmlns="http://www.w3.org/2000/svg"><g clip-path="url(#clip0)"><path d="M9.17763 48.2112H1.28003v7.8976h7.8976V48.2112z" fill="#fca121"/><path d="M32.5056 45.7601c7.5358.0 13.6448-6.109 13.6448-13.6448.0-7.5359-6.109-13.6448-13.6448-13.6448S18.8608 24.5794 18.8608 32.1153c0 7.5358 6.109 13.6448 13.6448 13.6448z" fill="#38f2af"/><path d="M32.576 53.44H10.496C10.1565 53.44 9.83095 53.3051 9.59091 53.0651 9.35086 52.825 9.216 52.4994 9.216 52.16 9.216 51.8205 9.35086 51.4949 9.59091 51.2549 9.83095 51.0148 10.1565 50.88 10.496 50.88h22.08C35.3633 50.8811 38.1176 50.2772 40.6487 49.1099c2.5311-1.1673 4.7787-2.8701 6.5874-4.9908 1.8087-2.1208 3.1356-4.6088 3.8888-7.2924C51.8782 34.1431 52.0399 31.328 51.599 28.5758 51.158 25.8236 50.1249 23.1999 48.5709 20.886c-1.5539-2.3139-3.5916-4.2629-5.9724-5.7124s-5.0478-2.3649-7.8169-2.683C32.0126 12.1725 29.2074 12.4593 26.56 13.3312 26.235 13.4372 25.8811 13.4099 25.5762 13.255 25.2714 13.1002 25.0405 12.8306 24.9344 12.5056 24.8283 12.1805 24.8557 11.8266 25.0105 11.5218 25.1654 11.2169 25.435 10.986 25.76 10.88 28.7572 9.9025 31.9307 9.58621 35.0619 9.95287 38.1931 10.3195 41.2077 11.3604 43.898 13.0039c2.6904 1.6434 4.9926 3.8504 6.7482 6.469 1.7556 2.6185 2.9228 5.5864 3.4213 8.6994C54.5661 31.2852 54.3841 34.4692 53.534 37.5051 52.684 40.5409 51.1861 43.3565 49.1436 45.7579c-2.0426 2.4014-4.5813 4.3317-7.4414 5.6579-2.8601 1.3261-5.9736 2.0167-9.1262 2.0242z" fill="#380d75"/><path d="M59.9296 53.44H50.7392C50.3998 53.44 50.0742 53.3051 49.8341 53.0651 49.5941 52.8251 49.4592 52.4995 49.4592 52.16 49.4592 51.8205 49.5941 51.495 49.8341 51.2549 50.0742 51.0149 50.3998 50.88 50.7392 50.88h9.1904C60.2691 50.88 60.5947 51.0149 60.8347 51.2549 61.0748 51.495 61.2096 51.8205 61.2096 52.16 61.2096 52.4995 61.0748 52.8251 60.8347 53.0651 60.5947 53.3051 60.2691 53.44 59.9296 53.44z" fill="#380d75"/><path d="M17.3248 46.656C17.1451 46.6564 16.9673 46.6191 16.8031 46.5463 16.6388 46.4735 16.4916 46.367 16.3712 46.2336 14.4152 44.0647 12.9148 41.5252 11.9588 38.7655 11.0028 36.0059 10.6107 33.0823 10.8059 30.1683S11.7795 24.4091 13.095 21.8016c1.3155-2.6075 3.1413-4.9242 5.369-6.8128C18.5849 14.8518 18.7337 14.7423 18.9005 14.6676 19.0672 14.5929 19.248 14.5548 19.4307 14.5558 19.6134 14.5568 19.7937 14.5969 19.9597 14.6734 20.1256 14.7499 20.2732 14.861 20.3926 14.9993 20.512 15.1376 20.6004 15.2999 20.6518 15.4751 20.7033 15.6504 20.7167 15.8347 20.691 16.0156S20.6012 16.3698 20.503 16.5238C20.4048 16.6779 20.2748 16.8091 20.1216 16.9088c-1.9664 1.6667-3.5781 3.7114-4.7394 6.0128-1.1613 2.3014-1.8486 4.8126-2.0211 7.3846C13.1886 32.8782 13.5344 35.4586 14.378 37.8945c.8436 2.4358 2.1678 4.6774 3.894 6.5919C18.4989 44.7378 18.6169 45.069 18.6001 45.4073 18.5833 45.7456 18.4331 46.0634 18.1824 46.2912 17.9526 46.5162 17.6464 46.6465 17.3248 46.656z" fill="#380d75"/><path d="M9.1776 57.3888H1.28C.940523 57.3888.61495 57.2539.374903 57.0138.134857 56.7738.0 56.4482.0 56.1088V48.2112C0 47.8717.134857 47.5461.374903 47.3061.61495 47.066.940523 46.9312 1.28 46.9312H9.1776C9.51708 46.9312 9.84265 47.066 10.0827 47.3061 10.3227 47.5461 10.4576 47.8717 10.4576 48.2112v7.8976C10.4576 56.4482 10.3227 56.7738 10.0827 57.0138 9.84265 57.2539 9.51708 57.3888 9.1776 57.3888zM2.56 54.8288H7.8976V49.4912H2.56v5.3376z" fill="#380d75"/><path d="M58.0992 58.2401C57.7612 58.2403 57.4368 58.1069 57.1968 57.8689 57.0778 57.75 56.9834 57.6088 56.919 57.4534 56.8546 57.298 56.8214 57.1315 56.8214 56.9633 56.8214 56.795 56.8546 56.6285 56.919 56.4731 56.9834 56.3177 57.0778 56.1765 57.1968 56.0576l3.712-3.7119-3.712-3.7057C57.0779 48.5211 56.9836 48.3799 56.9192 48.2246 56.8548 48.0692 56.8217 47.9026 56.8217 47.7344 56.8217 47.5663 56.8548 47.3997 56.9192 47.2443 56.9836 47.089 57.0779 46.9478 57.1968 46.8288 57.3157 46.7099 57.4569 46.6156 57.6123 46.5512 57.7677 46.4869 57.9342 46.4537 58.1024 46.4537 58.2706 46.4537 58.4371 46.4869 58.5925 46.5512 58.7479 46.6156 58.8891 46.7099 59.008 46.8288l4.6144 4.6144C63.7422 51.5623 63.8372 51.7039 63.9021 51.8599 63.9669 52.0159 64.0002 52.1831 64 52.3521 63.9986 52.691 63.8628 53.0155 63.6224 53.2544L59.008 57.8689C58.8884 57.9875 58.7466 58.0813 58.5906 58.145 58.4347 58.2087 58.2677 58.241 58.0992 58.2401z" fill="#380d75"/><path d="M30.2592 17.3313C30.0167 17.3313 29.7793 17.2625 29.5744 17.1329L24.064 13.632C23.7792 13.4484 23.5789 13.1593 23.5069 12.8282 23.4349 12.4971 23.4972 12.1509 23.68 11.8657l3.5008-5.51045C27.3624 6.06839 27.6505 5.86543 27.9818 5.79102 28.3131 5.7166 28.6603 5.77683 28.9472 5.95845 29.234 6.14007 29.437 6.42821 29.5114 6.75947 29.5858 7.09074 29.5256 7.43799 29.344 7.72485L26.5152 12.1601l4.4352 2.8095C31.1852 15.1183 31.3653 15.3392 31.4634 15.5992 31.5616 15.8592 31.5724 16.1441 31.4944 16.4108 31.4163 16.6775 31.2536 16.9116 31.0307 17.0776 30.8079 17.2437 30.5371 17.3327 30.2592 17.3313z" fill="#380d75"/><path d="M29.9008 37.8176C29.5628 37.8179 29.2384 37.6844 28.9984 37.4464l-3.6288-3.6288C25.2502 33.6991 25.1554 33.5582 25.0905 33.4031 25.0256 33.2479 24.9919 33.0815 24.9913 32.9133 24.9907 32.7451 25.0232 32.5785 25.087 32.4229S25.2447 32.1257 25.3632 32.0064C25.4817 31.8871 25.6225 31.7922 25.7777 31.7273 25.9329 31.6624 26.0993 31.6287 26.2675 31.6281 26.4357 31.6275 26.6023 31.66 26.7579 31.7238 26.9135 31.7877 27.055 31.8815 27.1744 32l2.7264 2.72 7.9424-7.936C37.9625 26.6634 38.1045 26.5675 38.2609 26.5017 38.4173 26.436 38.5851 26.4017 38.7548 26.4008 38.9245 26.3999 39.0927 26.4324 39.2498 26.4965S39.5498 26.6551 39.6704 26.7744C39.791 26.8937 39.8869 27.0357 39.9527 27.1921 40.0184 27.3485 40.0527 27.5163 40.0536 27.686 40.0545 27.8557 40.022 28.0239 39.9579 28.181 39.8938 28.3381 39.7993 28.481 39.68 28.6016l-8.8768 8.8448C30.5632 37.6844 30.2388 37.8179 29.9008 37.8176z" fill="#380d75"/></g><defs><clipPath id="clip0"><rect width="64" height="64" fill="#fff"/></clipPath></defs></svg>