<svg width="64" height="64" viewBox="0 0 64 64" fill="none" xmlns="http://www.w3.org/2000/svg"><g clip-path="url(#clip0)"><path d="M16.4992 19.4816c2.4954.0 4.5184-2.0229 4.5184-4.5184.0-2.4954-2.023-4.5184-4.5184-4.5184-2.4954.0-4.5184 2.023-4.5184 4.5184.0 2.4955 2.023 4.5184 4.5184 4.5184z" fill="#ac7fff"/><path d="M16.4992 32.1728C20.1288 32.1781 23.6481 30.9251 26.4576 28.6272c-1.2405-1.4207-2.7707-2.5595-4.4878-3.3397-1.7171-.7803-3.5813-1.184-5.4674-1.184-1.8861.0-3.7503.403700000000001-5.4674 1.184C9.31791 26.0677 7.7877 27.2065 6.54721 28.6272c2.80758 2.297 6.32449 3.55 9.95199 3.5456z" fill="#ac7fff"/><path d="M47.5136 49.9456c2.4955.0 4.5184-2.0229 4.5184-4.5184.0-2.4954-2.0229-4.5184-4.5184-4.5184-2.4954.0-4.5184 2.023-4.5184 4.5184.0 2.4955 2.023 4.5184 4.5184 4.5184z" fill="#fca121"/><path d="M47.5136 62.6368C51.1411 62.6412 54.658 61.3883 57.4656 59.0912 56.224 57.6724 54.6934 56.5353 52.9764 55.7563 51.2595 54.9772 49.3958 54.5742 47.5104 54.5742 45.625 54.5742 43.7613 54.9772 42.0444 55.7563 40.3274 56.5353 38.7968 57.6724 37.5552 59.0912c2.8101 2.2971 6.329 3.5499 9.9584 3.5456z" fill="#fca121"/><path d="M52.0192 23.6031C51.6797 23.6031 51.3542 23.4683 51.1141 23.2282 50.8741 22.9882 50.7392 22.6626 50.7392 22.3231V13.1647H41.6C41.2605 13.1647 40.935 13.0299 40.6949 12.7898 40.4549 12.5498 40.32 12.2242 40.32 11.8847 40.32 11.5453 40.4549 11.2197 40.6949 10.9796 40.935 10.7396 41.2605 10.6047 41.6 10.6047H52.0192C52.3587 10.6047 52.6843 10.7396 52.9243 10.9796 53.1644 11.2197 53.2992 11.5453 53.2992 11.8847V22.3231C53.2992 22.6626 53.1644 22.9882 52.9243 23.2282 52.6843 23.4683 52.3587 23.6031 52.0192 23.6031z" fill="#380d75"/><path d="M22.9888 53.3631H11.8144C11.4749 53.3631 11.1493 53.2283 10.9093 52.9882 10.6693 52.7482 10.5344 52.4226 10.5344 52.0831V41.5999C10.5344 41.2605 10.6693 40.9349 10.9093 40.6948 11.1493 40.4548 11.4749 40.3199 11.8144 40.3199 12.1539 40.3199 12.4794 40.4548 12.7195 40.6948 12.9595 40.9349 13.0944 41.2605 13.0944 41.5999v9.2032h9.8944C23.3283 50.8031 23.6538 50.938 23.8939 51.1781 24.1339 51.4181 24.2688 51.7437 24.2688 52.0831 24.2688 52.4226 24.1339 52.7482 23.8939 52.9882 23.6538 53.2283 23.3283 53.3631 22.9888 53.3631z" fill="#380d75"/><path d="M16.4864 33.0624C12.5025 33.0603 8.65384 31.6168 5.65121 28.9984 5.5023 28.8657 5.38314 28.703 5.30154 28.521 5.21995 28.339 5.17776 28.1418 5.17776 27.9424 5.17776 27.7429 5.21995 27.5457 5.30154 27.3637 5.38314 27.1817 5.5023 27.0191 5.65121 26.8864c3.01887-2.6319 6.89309-4.0738 10.89809-4.0562C20.5543 22.8479 24.4157 24.324 27.4112 26.9824 27.5478 27.1023 27.6572 27.25 27.7322 27.4155 27.8073 27.581 27.8462 27.7606 27.8464 27.9424 27.8453 28.123 27.8059 28.3014 27.7309 28.4658 27.6559 28.6301 27.5469 28.7767 27.4112 28.896c-3.0074 2.6815-6.8955 4.1643-10.9248 4.1664zm-8.03839-5.12c2.35059 1.6659 5.16049 2.5607 8.04159 2.5607s5.691-.8948 8.0416-2.5607c-2.3506-1.666-5.1605-2.5607-8.0416-2.5607s-5.691.8947-8.04159 2.5607z" fill="#380d75"/><path d="M16.4864 21.1201C15.2725 21.1201 14.0859 20.7601 13.0765 20.0857 12.0672 19.4113 11.2805 18.4527 10.816 17.3312 10.3515 16.2097 10.2299 14.9756 10.4667 13.7851 10.7036 12.5945 11.2881 11.5009 12.1465 10.6425c.8583-.85835 1.9519-1.4429 3.1425-1.67972C16.4796 8.72596 17.7137 8.84751 18.8352 9.31205 19.9567 9.77659 20.9152 10.5633 21.5896 11.5726 22.264 12.5819 22.624 13.7685 22.624 14.9825 22.6223 16.6097 21.9751 18.1699 20.8245 19.3205c-1.1507 1.1507-2.7108 1.7979-4.3381 1.7996zm0-9.7152c-.707599999999999.0-1.3993.2098-1.9876.6029C13.9105 12.4009 13.4519 12.9596 13.1811 13.6134 12.9104 14.2671 12.8395 14.9864 12.9775 15.6804 13.1156 16.3744 13.4563 17.0119 13.9567 17.5122 14.457 18.0125 15.0945 18.3533 15.7884 18.4913 16.4824 18.6294 17.2018 18.5585 17.8555 18.2877 18.5092 18.0169 19.068 17.5584 19.4611 16.9701 19.8542 16.3817 20.064 15.69 20.064 14.9825 20.0657 14.5113 19.9744 14.0444 19.7955 13.6085 19.6165 13.1726 19.3534 12.7762 19.0211 12.4422 18.6888 12.1081 18.2939 11.8428 17.8589 11.6615 17.424 11.4802 16.9576 11.3865 16.4864 11.3857V11.4049z" fill="#380d75"/><path d="M3.43681 25.6512C3.21343 25.6499 2.99429 25.5901 2.80118 25.4778 2.60806 25.3656 2.44769 25.2047 2.336 25.0112.841296 22.5089.0367058 19.6551.0042281 16.7405-.0282496 13.826.712547 10.9549 2.15112 8.41992 3.5897 5.88493 5.67463 3.77664 8.19343 2.30991 10.7122.843176 13.5749.0704346 16.4896.0704346S22.267.843176 24.7858 2.30991c2.5188 1.46673 4.6037 3.57502 6.0423 6.11001 1.4386 2.53498 2.1794 5.40608 2.1469 8.32058C32.9425 19.6551 32.1379 22.5089 30.6432 25.0112 30.4684 25.3032 30.1847 25.5137 29.8547 25.5965 29.5246 25.6794 29.1752 25.6277 28.8832 25.4528 28.5913 25.278 28.3807 24.9944 28.2979 24.6643 28.2151 24.3342 28.2668 23.9848 28.4416 23.6928c1.2629-2.1137 1.9427-4.5244 1.9703-6.9865S29.8139 11.8188 28.5987 9.67729c-1.2151-2.14151-2.9763-3.92256-5.1041-5.16164-2.1277-1.23908-4.5459-1.89188-7.0082-1.89188-2.4622.0-4.8805.6528-7.00821 1.89188-2.12775 1.23908-3.88895 3.02013-5.1041 5.16164C3.15894 11.8188 2.53328 14.2442 2.56088 16.7063s.70747 4.8728 1.97033 6.9865C4.64297 23.8864 4.70211 24.1058 4.70273 24.3293 4.70336 24.5528 4.64545 24.7726 4.53477 24.9668 4.42409 25.161 4.2645 25.3228 4.07187 25.4361 3.87924 25.5495 3.66029 25.6104 3.43681 25.6128V25.6512z" fill="#380d75"/><path d="M47.5136 63.8657C43.4789 63.8676 39.5842 62.3872 36.5696 59.7057 36.4334 59.5855 36.3243 59.4378 36.2496 59.2723S36.1362 58.9273 36.1362 58.7457C36.1362 58.5641 36.1749 58.3845 36.2496 58.219S36.4334 57.9058 36.5696 57.7857c3.0154-2.6802 6.9096-4.1607 10.944-4.1607C51.548 53.625 55.4421 55.1055 58.4576 57.7857 58.5938 57.9058 58.7029 58.0535 58.7776 58.219S58.891 58.5641 58.891 58.7457C58.891 58.9273 58.8523 59.1068 58.7776 59.2723S58.5938 59.5855 58.4576 59.7057c-3.0152 2.6804-6.9096 4.1607-10.944 4.16zm-8.0448-5.12c2.3506 1.6659 5.1605 2.5607 8.0416 2.5607 2.8811.0 5.691-.894799999999997 8.0416-2.5607-2.3524-1.6615-5.1617-2.5535-8.0416-2.5535-2.88.0-5.6892.892000000000003-8.0416 2.5535z" fill="#380d75"/><path d="M47.5136 51.904C46.2997 51.904 45.113 51.544 44.1037 50.8696 43.0944 50.1952 42.3077 49.2366 41.8432 48.1151 41.3786 46.9936 41.2571 45.7596 41.4939 44.569 41.7307 43.3784 42.3153 42.2848 43.1736 41.4264 44.032 40.5681 45.1256 39.9835 46.3162 39.7467 47.5068 39.5099 48.7408 39.6314 49.8623 40.096 50.9838 40.5605 51.9424 41.3472 52.6168 42.3565 53.2912 43.3658 53.6512 44.5525 53.6512 45.7664 53.6495 47.3937 53.0023 48.9538 51.8516 50.1045c-1.1506 1.1506-2.7107 1.7978-4.338 1.7995zm0-9.7088C46.8057 42.1952 46.1138 42.4052 45.5253 42.7986 44.9368 43.192 44.4783 43.7511 44.2077 44.4052 43.9371 45.0593 43.8666 45.7789 44.0052 46.4731 44.1438 47.1673 44.4851 47.8047 44.9861 48.3048S46.1251 49.1451 46.8196 49.2824C47.514 49.4197 48.2335 49.348 48.8871 49.0762 49.5407 48.8045 50.099 48.3449 50.4914 47.7557 50.8837 47.1666 51.0924 46.4742 51.0912 45.7664 51.0895 44.8187 50.7118 43.9103 50.0411 43.2408 49.3703 42.5712 48.4613 42.1952 47.5136 42.1952z" fill="#380d75"/><path d="M34.4576 56.4608C34.2342 56.4594 34.0151 56.3996 33.822 56.2874 33.6288 56.1751 33.4685 56.0142 33.3568 55.8208c-1.4974-2.5031-2.3042-5.3585-2.3381-8.2751C30.9848 44.6291 31.7249 41.7557 33.1637 39.2185c1.4387-2.5373 3.5246-4.6476 6.045-6.1157 2.5203-1.4682 5.3849-2.2417 8.3017-2.2417C50.4272 30.8611 53.2918 31.6346 55.8121 33.1028c2.5203 1.4681 4.6062 3.5784 6.045 6.1157 1.4387 2.5372 2.1789 5.4106 2.145 8.3272C63.9681 50.4623 63.1614 53.3177 61.664 55.8208 61.5924 55.9872 61.4862 56.1365 61.3526 56.2589 61.2189 56.3812 61.0608 56.4738 60.8888 56.5305 60.7167 56.5872 60.5345 56.6067 60.3543 56.5878 60.1741 56.5688 60 56.5118 59.8435 56.4206 59.6869 56.3293 59.5516 56.2058 59.4463 56.0583 59.3411 55.9109 59.2683 55.7427 59.2329 55.565 59.1975 55.3873 59.2002 55.2041 59.2409 55.0276 59.2815 54.851 59.3592 54.6851 59.4688 54.5408 60.7304 52.4269 61.4092 50.0164 61.436 47.5549 61.4627 45.0933 60.8365 42.6686 59.6212 40.5279 58.4058 38.3871 56.6447 36.6067 54.5172 35.3681 52.3898 34.1296 49.9721 33.477 47.5104 33.477S42.6309 34.1296 40.5035 35.3681c-2.1274 1.2386-3.8885 3.019-5.1039 5.1598-1.2154 2.1407-1.8416 4.5654-1.8148 7.027C33.6116 50.0164 34.2903 52.4269 35.552 54.5408 35.7262 54.8312 35.7782 55.1788 35.6966 55.5075 35.615 55.8361 35.4065 56.1191 35.1168 56.2944 34.9161 56.4082 34.6883 56.4657 34.4576 56.4608z" fill="#380d75"/></g><defs><clipPath id="clip0"><rect width="64" height="64" fill="#fff"/></clipPath></defs></svg>