<svg width="64" height="64" viewBox="0 0 64 64" fill="none" xmlns="http://www.w3.org/2000/svg"><g clip-path="url(#clip0)"><path d="M32 43.3152c6.2492.0 11.3152-5.066 11.3152-11.3152.0-6.2492-5.066-11.3152-11.3152-11.3152-6.2492.0-11.3152 5.066-11.3152 11.3152S25.7508 43.3152 32 43.3152z" fill="#38f2af"/><path d="M3.43681 44.6016C3.18045 44.6018 2.92993 44.5251 2.71768 44.3813 2.50544 44.2375 2.34126 44.0333 2.24641 43.7952-.0597861 37.9881-.615462 31.6329.64794 25.5137c1.2634-6.1192 4.29061-11.7346 8.70811-16.15349C13.7735 4.94135 19.3881 1.91242 25.5069.647128 31.6257-.61816 37.981-.0644418 43.7888 2.23996 43.9608 2.28741 44.1209 2.37027 44.2589 2.48324 44.397 2.5962 44.5099 2.73676 44.5904 2.89592 44.671 3.05508 44.7174 3.22931 44.7266 3.40745 44.7359 3.58558 44.7078 3.76368 44.6442 3.93033 44.5806 4.09697 44.4828 4.24848 44.3572 4.37514S44.0809 4.6008 43.9148 4.66581 43.5709 4.7604 43.3927 4.75264C43.2145 4.74488 43.0398 4.69996 42.88 4.62076 37.5319 2.48488 31.6748 1.96444 26.0339 3.12388 20.393 4.28331 15.216 7.0717 11.1439 11.1438c-4.07215 4.0721-6.86054 9.2491-8.01998 14.89-1.15943 5.641-.63899 11.4981 1.49689 16.8462C4.68316 43.0363 4.71408 43.2033 4.71179 43.3716 4.7095 43.5399 4.67405 43.7061 4.60747 43.8606 4.5409 44.0152 4.44449 44.1551 4.32379 44.2723 4.20308 44.3896 4.06043 44.4819 3.90401 44.544 3.75288 44.5905 3.59472 44.61 3.43681 44.6016z" fill="#380d75"/><path d="M32 64C27.1447 64.0199 22.3496 62.9251 17.984 60.7999 17.6785 60.6514 17.4445 60.3876 17.3334 60.0666 17.2224 59.7455 17.2435 59.3935 17.392 59.0879 17.5405 58.7824 17.8043 58.5484 18.1254 58.4374 18.4465 58.3264 18.7985 58.3474 19.104 58.496c4.0158 1.9578 8.4284 2.9651 12.896 2.9439C36.9121 61.4413 41.7465 60.2135 46.0627 57.8685 50.3789 55.5235 54.0397 52.1358 56.7117 48.014 59.3836 43.8922 60.9817 39.1673 61.3605 34.2698 61.7392 29.3724 60.8865 24.458 58.88 19.9744 58.7408 19.6646 58.7304 19.3122 58.851 18.9947 58.9716 18.6773 59.2134 18.4207 59.5232 18.2816 59.833 18.1424 60.1854 18.1319 60.5028 18.2526 60.8203 18.3732 61.0768 18.615 61.216 18.9248c2.1818 4.8735 3.1093 10.2155 2.6982 15.5393C63.503 39.7879 61.7661 44.9241 58.8619 49.4049c-2.9042 4.4807-6.8835 8.1635-11.5753 10.7127C42.5948 62.6668 37.3396 64.0015 32 64z" fill="#380d75"/><path d="M10.88 33.28C10.5405 33.28 10.215 33.1451 9.97491 32.9051 9.73486 32.665 9.60001 32.3395 9.60001 32 9.60851 27.5771 10.9262 23.2557 13.3869 19.5806c2.4607-3.6752 5.9543-6.5396 10.0405-8.2322 4.0862-1.6927 8.582-2.1378 12.9208-1.2792C40.6869 10.9277 44.6744 13.0515 47.808 16.1728 48.5889 16.9596 49.3139 17.8001 49.9776 18.688 50.1804 18.9604 50.2668 19.3023 50.2175 19.6383 50.1683 19.9744 49.9876 20.2772 49.7152 20.48 49.4428 20.6828 49.1009 20.7691 48.7649 20.7199 48.4288 20.6707 48.126 20.49 47.9232 20.2176c-1.697-2.2878-3.8667-4.1833-6.3616-5.5577-2.4949-1.3744-5.2565-2.1955-8.0971-2.4074C30.624 12.0406 27.7711 12.4428 25.0999 13.4318 22.4286 14.4208 20.0017 15.9734 17.984 17.984c-1.8497 1.8348-3.3168 4.0185-4.3166 6.4244C12.6677 26.8143 12.1554 29.3946 12.16 32 12.16 32.3395 12.0251 32.665 11.7851 32.9051 11.5451 33.1451 11.2195 33.28 10.88 33.28z" fill="#380d75"/><path d="M32 54.4C29.059 54.4007 26.1468 53.8204 23.4307 52.6924c-2.7161-1.1279-5.1826-2.7813-7.2579-4.8652C15.3741 47.03 14.6361 46.1742 13.9648 45.2672 13.8401 45.1362 13.7446 44.9803 13.6845 44.8097S13.6012 44.4577 13.6163 44.2775C13.6314 44.0973 13.6846 43.9223 13.7722 43.7641 13.8599 43.6059 13.9801 43.4681 14.1248 43.3598 14.2696 43.2514 14.4357 43.1749 14.6122 43.1354 14.7887 43.0959 14.9716 43.0943 15.1487 43.1306 15.3259 43.1669 15.4934 43.2403 15.6401 43.346 15.7868 43.4518 15.9095 43.5874 16 43.744 16.6049 44.5488 17.268 45.3081 17.984 46.016c2.7746 2.7694 6.3074 4.6548 10.1526 5.4182C31.9817 52.1976 35.9669 51.8047 39.5889 50.3052 43.211 48.8057 46.3077 46.2668 48.4881 43.0089 50.6685 39.751 51.8349 35.9202 51.84 32 51.84 31.6605 51.9749 31.3349 52.2149 31.0949 52.455 30.8548 52.7805 30.72 53.12 30.72 53.4595 30.72 53.7851 30.8548 54.0251 31.0949 54.2651 31.3349 54.4 31.6605 54.4 32 54.4059 34.9432 53.8305 37.8587 52.7069 40.5791 51.5833 43.2994 49.9336 45.7711 47.8524 47.8523 45.7712 49.9335 43.2994 51.5833 40.5791 52.7069 37.8587 53.8305 34.9433 54.4059 32 54.4z" fill="#380d75"/><path d="M32 44.5952C29.5089 44.5952 27.0737 43.8565 25.0025 42.4725 22.9312 41.0885 21.3168 39.1214 20.3635 36.82 19.4102 34.5185 19.1608 31.986 19.6468 29.5428s1.6856-4.6875 3.447-6.449c1.7615-1.7614 4.0058-2.961 6.449-3.447S34.5185 19.4102 36.82 20.3635C39.1214 21.3168 41.0885 22.9312 42.4725 25.0025c1.384 2.0712 2.1227 4.5064 2.1227 6.9975C44.5918 35.3394 43.2637 38.5411 40.9024 40.9024S35.3394 44.5918 32 44.5952zm0-22.6304c-1.9848.0-3.925.5885-5.5753 1.6912-1.6502 1.1027-2.9365 2.67-3.696 4.5037C21.9691 29.9934 21.7704 32.0111 22.1576 33.9578c.3872 1.9466 1.343 3.7347 2.7464 5.1381 1.4035 1.4035 3.1916 2.3593 5.1382 2.7465C31.9889 42.2296 34.0066 42.0308 35.8403 41.2713 37.674 40.5118 39.2413 39.2255 40.344 37.5753 41.4466 35.925 42.0352 33.9848 42.0352 32 42.0335 29.339 40.9757 26.7875 39.0941 24.9059 37.2125 23.0243 34.661 21.9665 32 21.9648z" fill="#380d75"/><path d="M30.2336 36.3328C29.8947 36.3314 29.5701 36.1956 29.3312 35.9552l-2.56-2.56C26.531 33.155 26.3961 32.8293 26.3961 32.4896 26.3961 32.15 26.531 31.8242 26.7712 31.584 27.0114 31.3438 27.3371 31.2089 27.6768 31.2089S28.3422 31.3438 28.5824 31.584l1.6512 1.6512 5.184-5.1776C35.6607 27.8366 35.9795 27.7174 36.308 27.7249 36.6365 27.7324 36.9495 27.866 37.1823 28.0979 37.415 28.3298 37.5497 28.6424 37.5583 28.9709 37.567 29.2993 37.449 29.6185 37.2288 29.8624l-6.0864 6.0864C31.0239 36.0698 30.8825 36.166 30.7265 36.2319 30.5705 36.2978 30.403 36.3321 30.2336 36.3328z" fill="#380d75"/><path d="M48.9664 20.736H43.3472C43.0077 20.736 42.6822 20.6012 42.4421 20.3611 42.2021 20.1211 42.0672 19.7955 42.0672 19.456S42.2021 18.791 42.4421 18.5509C42.6822 18.3109 43.0077 18.176 43.3472 18.176h4.3392V13.8304C47.6864 13.4909 47.8213 13.1654 48.0613 12.9253 48.3014 12.6853 48.6269 12.5504 48.9664 12.5504S49.6315 12.6853 49.8715 12.9253C50.1116 13.1654 50.2464 13.4909 50.2464 13.8304V19.456C50.2464 19.7955 50.1116 20.1211 49.8715 20.3611 49.6315 20.6012 49.3059 20.736 48.9664 20.736z" fill="#380d75"/><path d="M14.9952 51.392C14.6557 51.392 14.3302 51.2572 14.0901 51.0171 13.8501 50.7771 13.7152 50.4515 13.7152 50.112V44.4864C13.7152 44.1469 13.8501 43.8214 14.0901 43.5813 14.3302 43.3413 14.6557 43.2064 14.9952 43.2064h5.6256C20.9603 43.2064 21.2859 43.3413 21.5259 43.5813 21.766 43.8214 21.9008 44.1469 21.9008 44.4864 21.9008 44.8259 21.766 45.1515 21.5259 45.3915 21.2859 45.6316 20.9603 45.7664 20.6208 45.7664H16.2752V50.112C16.2752 50.4515 16.1404 50.7771 15.9003 51.0171 15.6603 51.2572 15.3347 51.392 14.9952 51.392z" fill="#380d75"/></g><defs><clipPath id="clip0"><rect width="64" height="64" fill="#fff"/></clipPath></defs></svg>