<svg width="86" height="80" viewBox="0 0 86 80" fill="none" xmlns="http://www.w3.org/2000/svg"><path fill-rule="evenodd" clip-rule="evenodd" d="M82 4H59V18H82V4zM59 0c-2.2091.0-4 1.79086-4 4V18c0 2.2091 1.7909 4 4 4H82C84.2091 22 86 20.2091 86 18V4C86 1.79086 84.2091.0 82 0H59z" fill="#fca326"/><path fill-rule="evenodd" clip-rule="evenodd" d="M27 4H4V18H27V4zM4 0C1.79086.0.0 1.79086.0 4V18c0 2.2091 1.79086 4 4 4H27c2.2091.0 4-1.7909 4-4V4c0-2.20914-1.7909-4-4-4H4z" fill="#fca326"/><path fill-rule="evenodd" clip-rule="evenodd" d="M82 33H59V47H82V33zM59 29c-2.2091.0-4 1.7909-4 4V47c0 2.2091 1.7909 4 4 4H82C84.2091 51 86 49.2091 86 47V33C86 30.7909 84.2091 29 82 29H59z" fill="#e24329"/><path fill-rule="evenodd" clip-rule="evenodd" d="M27 33H4V47H27V33zM4 29c-2.20914.0-4 1.7909-4 4V47c0 2.2091 1.79086 4 4 4H27c2.2091.0 4-1.7909 4-4V33c0-2.2091-1.7909-4-4-4H4z" fill="#e24329"/><path fill-rule="evenodd" clip-rule="evenodd" d="M82 62H59V76H82V62zM59 58c-2.2091.0-4 1.7909-4 4V76C55 78.2091 56.7909 80 59 80H82C84.2091 80 86 78.2091 86 76V62C86 59.7909 84.2091 58 82 58H59z" fill="#fca326"/><path fill-rule="evenodd" clip-rule="evenodd" d="M27 62H4V76H27V62zM4 58c-2.20914.0-4 1.7909-4 4V76C0 78.2091 1.79086 80 4 80H27C29.2091 80 31 78.2091 31 76V62c0-2.2091-1.7909-4-4-4H4z" fill="#fca326"/><path fill-rule="evenodd" clip-rule="evenodd" d="M43 52c6.6274.0 12-5.3726 12-12S49.6274 28 43 28 31 33.3726 31 40s5.3726 12 12 12zm0 4c8.8366.0 16-7.1634 16-16 0-8.8366-7.1634-16-16-16S27 31.1634 27 40c0 8.8366 7.1634 16 16 16z" fill="#e24329"/><path d="M43 16C41.8954 16 41 16.8954 41 18v8C41 27.1046 41.8954 28 43 28S45 27.1046 45 26V18C45 16.8954 44.1046 16 43 16z" fill="#fc6d26"/><path d="M43 52C41.8954 52 41 52.8954 41 54v8C41 63.1046 41.8954 64 43 64S45 63.1046 45 62V54C45 52.8954 44.1046 52 43 52z" fill="#fc6d26"/><path d="M55 19.2154C54.0434 18.6631 52.8202 18.9909 52.2679 19.9474l-4 6.9282C47.7157 27.8322 48.0434 29.0554 49 29.6077 49.9566 30.16 51.1798 29.8322 51.732 28.8756l4-6.9282C56.2843 20.9909 55.9566 19.7677 55 19.2154z" fill="#fc6d26"/><path d="M37 50.3923C36.0434 49.84 34.8202 50.1678 34.2679 51.1244l-4 6.9282C29.7157 59.0091 30.0434 60.2323 31 60.7846 31.9566 61.3369 33.1798 61.0091 33.732 60.0526l4-6.9282C38.2843 52.1678 37.9566 50.9446 37 50.3923z" fill="#fc6d26"/><path d="M67 40C67 38.8954 66.1046 38 65 38H57C55.8954 38 55 38.8954 55 40S55.8954 42 57 42h8C66.1046 42 67 41.1046 67 40z" fill="#fc6d26"/><path d="M31 40C31 38.8954 30.1046 38 29 38H21C19.8954 38 19 38.8954 19 40S19.8954 42 21 42h8C30.1046 42 31 41.1046 31 40z" fill="#fc6d26"/><path d="M31 19.2154C30.0434 19.7677 29.7157 20.9909 30.2679 21.9474l4 6.9282C34.8202 29.8322 36.0434 30.16 37 29.6077 37.9566 29.0554 38.2843 27.8322 37.732 26.8756l-4-6.9282C33.1798 18.9909 31.9566 18.6631 31 19.2154z" fill="#fc6d26"/><path d="M49 50.3923C48.0434 50.9446 47.7157 52.1678 48.2679 53.1244l4 6.9282C52.8202 61.0091 54.0434 61.3369 55 60.7846 55.9566 60.2323 56.2843 59.0091 55.732 58.0526l-4-6.9282C51.1798 50.1678 49.9566 49.84 49 50.3923z" fill="#fc6d26"/></svg>