<svg width="86" height="80" xmlns="http://www.w3.org/2000/svg" xmlns:xlink="http://www.w3.org/1999/xlink"><defs><path id="a" d="M0 80h86V0H0z"/></defs><g fill="none" fill-rule="evenodd"><path d="M2 42a2 2 0 01-2-2V24a2 2 0 012-2h8a2 2 0 010 4H4v14a2 2 0 01-2 2m82 0a2 2 0 01-2-2V26h-6a2 2 0 010-4h8a2 2 0 012 2v16a2 2 0 01-2 2" fill="#fc6d26"/><mask id="b" fill="#fff"><use xlink:href="#a"/></mask><path d="M16 76h8v-4h-8v4zm10 4H14a2 2 0 01-2-2v-8a2 2 0 012-2h12a2 2 0 012 2v8a2 2 0 01-2 2zm36-4h8v-4h-8v4zm10 4H60a2 2 0 01-2-2v-8a2 2 0 012-2h12a2 2 0 012 2v8a2 2 0 01-2 2z" fill="#fca326" mask="url(#b)"/><path d="M18.27 4A6.277 6.277.0 0012 10.27v55.595c0 1.177.957 2.135 2.134 2.135h57.731A2.138 2.138.0 0074 65.865V10.27A6.277 6.277.0 0067.73 4H18.27zm53.596 68H14.134A6.142 6.142.0 018 65.865V10.27C8 4.607 12.607.0 18.27.0h49.46C73.394.0 78 4.607 78 10.27v55.595A6.14 6.14.0 0171.864 72z" fill="#e24329" mask="url(#b)"/><path d="M36 64H21a2 2 0 010-4h15a2 2 0 010 4" fill="#fc6d26" mask="url(#b)"/><path d="M36 64a2 2 0 01-2-2v-3.249l-11-1.467V62a2 2 0 01-4 0v-7a2 2 0 012.265-1.982l15 2A2 2 0 0138 57v5a2 2 0 01-2 2" fill="#fca326" mask="url(#b)"/><path d="M61 18H25a2 2 0 010-4h36a2 2 0 010 4m4 46H50a2 2 0 010-4h15a2 2 0 010 4" fill="#fc6d26" mask="url(#b)"/><path d="M25.515 38.243a2 2 0 01-1.414-3.414l4.243-4.243a2 2 0 112.828 2.828l-4.243 4.243a1.992 1.992.0 01-1.414.586" fill="#e24329" mask="url(#b)"/><path d="M32.586 42.485a2 2 0 01-1.414-3.414l1.414-1.414a2 2 0 112.828 2.828L34 41.9a1.992 1.992.0 01-1.414.586" fill="#fc6d26" mask="url(#b)"/><path d="M62 50a2 2 0 01-2-2c0-1.654-1.346-3-3-3s-3 1.346-3 3a2 2 0 01-4 0c0-3.86 3.141-7 7-7s7 3.14 7 7a2 2 0 01-2 2" fill="#e24329" mask="url(#b)"/><path d="M70.5 44h-4V28c0-1.103-.971-2-2.163-2H21.663c-1.192.0-2.163.897-2.163 2v16h-4V28c0-3.309 2.765-6 6.163-6h42.674c3.398.0 6.163 2.691 6.163 6v16z" fill="#fc6d26" mask="url(#b)"/><path d="M19.5 44h.01-.01zM43 52c-11.71.0-21.652-1.778-25.45-4.541-1.27-.714-2.05-2.022-2.05-3.459a2 2 0 014-.04c.109.057.244.144.34.218C22.323 46.077 31.076 48 43 48s20.677-1.923 23.16-3.822c.1-.076.206-.143.319-.199a2 2 0 012.01-1.99c1.105.0 2.011.907 2.011 2.011.0 1.437-.78 2.745-2.05 3.459C64.652 50.222 54.71 52 43 52z" fill="#e24329" mask="url(#b)"/><path d="M61 18a2 2 0 01-2-2v-4H27v4a2 2 0 01-4 0v-6a2 2 0 012-2h36a2 2 0 012 2v6a2 2 0 01-2 2m4 46a2 2 0 01-2-2v-4.716l-11 1.467V62a2 2 0 01-4 0v-5a2 2 0 011.735-1.982l15-2A1.998 1.998.0 0167 55v7a2 2 0 01-2 2" fill="#fca326" mask="url(#b)"/></g></svg>