<svg width="988" height="341" viewBox="0 0 988 341" fill="none" xmlns="http://www.w3.org/2000/svg"><circle cx="251" cy="271" r="59.5" stroke="#c7c7f2"/><path d="M210.436 302.852 210.122 303.802 210.436 302.852 208.305 302.149C208.104 300.461 208 298.743 208 297 208 294.896 208.151 292.828 208.443 290.806L210.436 290.148C217.978 287.659 221.545 279.048 217.972 271.955L217.198 270.419C219.619 267.344 222.45 264.609 225.609 262.294L226.955 262.972C234.048 266.545 242.659 262.978 245.148 255.436L245.507 254.347C247.305 254.118 249.139 254 251 254 253.224 254 255.409 254.169 257.541 254.494L257.852 255.436C260.341 262.978 268.952 266.545 276.045 262.972L276.796 262.594C280.056 265.042 282.958 267.944 285.406 271.204L285.028 271.955C281.455 279.048 285.022 287.659 292.564 290.148L293.506 290.459C293.831 292.591 294 294.776 294 297 294 298.861 293.882 300.695 293.653 302.493L292.564 302.852C285.022 305.341 281.455 313.952 285.028 321.045L285.706 322.391C283.391 325.55 280.656 328.381 277.581 330.802L276.045 330.028C268.952 326.455 260.341 330.022 257.852 337.564L257.194 339.557C255.172 339.849 253.104 340 251 340 249.257 340 247.539 339.896 245.851 339.695L245.148 337.564C242.659 330.022 234.048 326.455 226.955 330.028L224.811 331.108C221.841 328.823 219.177 326.159 216.892 323.189L217.972 321.045C221.545 313.952 217.978 305.341 210.436 302.852zM251 314C260.389 314 268 306.389 268 297S260.389 280 251 280 234 287.611 234 297 241.611 314 251 314z" fill="#fafafa" stroke="#c7c7f2" stroke-width="2"/><path d="M930 120v35c0 13.255-10.745 24-24 24H120" stroke="#c7c7f2"/><path d="M59 239v8c0 13.255 10.7452 24 24 24H191" stroke="#c7c7f2"/><circle cx="928" cy="60" r="59.5" stroke="#c7c7f2"/><circle cx="968" cy="98" r="11" fill="#fafafa" stroke="#c7c7f2" stroke-width="2"/><path fill-rule="evenodd" clip-rule="evenodd" d="M973.707 94.2929C974.098 94.6834 974.098 95.3166 973.707 95.7071l-6 5.9999C967.317 102.098 966.683 102.098 966.293 101.707l-3-2.9999C962.902 98.3166 962.902 97.6834 963.293 97.2929 963.683 96.9024 964.317 96.9024 964.707 97.2929L967 99.5858 972.293 94.2929C972.683 93.9024 973.317 93.9024 973.707 94.2929z" fill="#c7c7f2"/><path d="M954 56h24" stroke="#c7c7f2" stroke-linecap="round"/><path d="M882 56h16" stroke="#c7c7f2" stroke-linecap="round"/><path d="M888 40h24" stroke="#c7c7f2" stroke-linecap="round"/><path d="M945 40h24" stroke="#c7c7f2" stroke-linecap="round"/><path d="M879 48h8" stroke="#c7c7f2" stroke-linecap="round"/><path d="M958 64h8" stroke="#c7c7f2" stroke-linecap="round"/><path d="M885 32h16" stroke="#c7c7f2" stroke-linecap="round"/><path d="M942 24h8" stroke="#c7c7f2" stroke-linecap="round"/><path d="M960 32h8" stroke="#c7c7f2" stroke-linecap="round"/><path d="M887 80h8" stroke="#c7c7f2" stroke-linecap="round"/><path d="M966 48h8" stroke="#c7c7f2" stroke-linecap="round"/><path d="M954 48h8" stroke="#c7c7f2" stroke-linecap="round"/><path d="M891 48h8" stroke="#c7c7f2" stroke-linecap="round"/><path d="M970 64h8" stroke="#c7c7f2" stroke-linecap="round"/><path d="M944 72h24" stroke="#c7c7f2" stroke-linecap="round"/><path d="M958 80h8" stroke="#c7c7f2" stroke-linecap="round"/><path d="M880 72h16" stroke="#c7c7f2" stroke-linecap="round"/><path d="M897 88h16" stroke="#c7c7f2" stroke-linecap="round"/><path d="M906 96h8" stroke="#c7c7f2" stroke-linecap="round"/><path d="M930 96h20" stroke="#c7c7f2" stroke-linecap="round"/><path d="M916 104h24" stroke="#c7c7f2" stroke-linecap="round"/><path d="M938 88h16" stroke="#c7c7f2" stroke-linecap="round"/><path d="M899 80h16" stroke="#c7c7f2" stroke-linecap="round"/><path d="M894 24h16" stroke="#c7c7f2" stroke-linecap="round"/><path d="M914 24h24" stroke="#c7c7f2" stroke-linecap="round"/><path d="M918 16h24" stroke="#c7c7f2" stroke-linecap="round"/><path d="M884 64h24" stroke="#c7c7f2" stroke-linecap="round"/><path d="M897 34.9898C907.25 34.7807 917.185 31.3611 925.4 25.2L928 23.25 930.6 25.2C938.815 31.3611 948.75 34.7807 959 34.9898V59.8301C959 73.2769 952.073 85.7752 940.67 92.902L928 100.821l-12.67-7.919C903.927 85.7752 897 73.2769 897 59.8301V34.9898z" fill="#fafafa" stroke="#c7c7f2" stroke-width="2"/><path d="M931 60.6185C931 60.2904 931.197 59.8954 931.628 59.4408 932.477 58.5453 933 57.3326 933 56 933 53.2386 930.761 51 928 51s-5 2.2386-5 5C923 57.3326 923.523 58.5453 924.372 59.4408 924.803 59.8954 925 60.2904 925 60.6185V64C925 65.6569 926.343 67 928 67S931 65.6569 931 64V60.6185z" fill="#fff" stroke="#c7c7f2" stroke-width="2"/><circle cx="60" cy="179" r="59.5" stroke="#c7c7f2"/><path d="M20 138c31.2419.0 48.7581.0 80 0" stroke="#c7c7f2" stroke-width="2"/><circle cx="60" cy="138" r="11" fill="#fafafa" stroke="#c7c7f2" stroke-width="2"/><circle cx="20" cy="138" r="11" fill="#fafafa" stroke="#c7c7f2" stroke-width="2"/><path fill-rule="evenodd" clip-rule="evenodd" d="M25.7071 134.293C26.0976 134.683 26.0976 135.317 25.7071 135.707l-6 6C19.3166 142.098 18.6834 142.098 18.2929 141.707l-3-3C14.9024 138.317 14.9024 137.683 15.2929 137.293 15.6834 136.902 16.3166 136.902 16.7071 137.293L19 139.586 24.2929 134.293C24.6834 133.902 25.3166 133.902 25.7071 134.293z" fill="#c7c7f2"/><path fill-rule="evenodd" clip-rule="evenodd" d="M65.7071 134.293C66.0976 134.683 66.0976 135.317 65.7071 135.707l-6 6C59.3166 142.098 58.6834 142.098 58.2929 141.707l-3-3C54.9024 138.317 54.9024 137.683 55.2929 137.293 55.6834 136.902 56.3166 136.902 56.7071 137.293L59 139.586 64.2929 134.293C64.6834 133.902 65.3166 133.902 65.7071 134.293z" fill="#c7c7f2"/><circle cx="100" cy="138" r="11" fill="#fafafa" stroke="#c7c7f2" stroke-width="2"/><path fill-rule="evenodd" clip-rule="evenodd" d="M105.707 134.293C106.098 134.683 106.098 135.317 105.707 135.707l-5.9999 6C99.3166 142.098 98.6834 142.098 98.2929 141.707l-3-3C94.9024 138.317 94.9024 137.683 95.2929 137.293 95.6834 136.902 96.3166 136.902 96.7071 137.293L99 139.586 104.293 134.293C104.683 133.902 105.317 133.902 105.707 134.293z" fill="#c7c7f2"/><path d="M29 229V173c0-2.209 1.7909-4 4-4H87C89.2091 169 91 170.791 91 173v56" stroke="#c7c7f2" stroke-width="2" stroke-linecap="round"/><path d="M35 232V175H85v57" stroke="#c7c7f2" stroke-linecap="round"/><path d="M65 166v1h1 9v9H45v-9h9 1v-1c0-2.761 2.2386-5 5-5s5 2.239 5 5z" fill="#fafafa" stroke="#c7c7f2" stroke-width="2"/><circle r="2" transform="matrix(-1 0 0 1 60 166)" fill="#c7c7f2"/><path d="M40 204.5V223H79" stroke="#c7c7f2" stroke-width="2" stroke-linecap="round"/><path d="M44.5 219c1-2.167 4.9-8 6.5-8 2 0 5 4 7 2.5s4.1328-6.053 6.5-7c2.5-1 8 2.5 11-2.5" stroke="#c7c7f2" stroke-width="2" stroke-linecap="round"/><circle cx="40" cy="184" r="1" fill="#c7c7f2"/><circle cx="40" cy="189" r="1" fill="#c7c7f2"/><circle cx="40" cy="194" r="1" fill="#c7c7f2"/><rect x="44" y="183" width="30" height="2" rx="1" fill="#c7c7f2"/><rect x="44" y="188" width="36" height="2" rx="1" fill="#c7c7f2"/><rect x="44" y="193" width="24" height="2" rx="1" fill="#c7c7f2"/><rect x="39" y="227" width="24" height="2" rx="1" fill="#c7c7f2"/></svg>