<svg width="375" height="288" viewBox="0 0 375 288" fill="none" xmlns="http://www.w3.org/2000/svg"><circle cx="126" cy="218" r="59.5" stroke="#c7c7f2"/><path d="M85.4359 249.852 85.1225 250.802 85.4359 249.852 83.305 249.149C83.1036 247.461 83 245.743 83 244 83 241.896 83.151 239.828 83.4427 237.806L85.436 237.148C92.9779 234.659 96.5445 226.048 92.9717 218.955L92.1979 217.419C94.6187 214.344 97.4498 211.609 100.609 209.294L101.955 209.972C109.048 213.545 117.659 209.978 120.148 202.436L120.507 201.347C122.305 201.118 124.139 201 126 201 128.224 201 130.409 201.169 132.541 201.494L132.852 202.436c2.489 7.542 11.1 11.109 18.193 7.536L151.796 209.594C155.056 212.042 157.958 214.944 160.406 218.204L160.028 218.955C156.455 226.048 160.022 234.659 167.564 237.148L168.506 237.459C168.831 239.591 169 241.776 169 244 169 245.861 168.882 247.695 168.653 249.493L167.564 249.852c-7.542 2.489-11.109 11.1-7.536 18.193L160.706 269.391C158.391 272.55 155.656 275.381 152.581 277.802L151.045 277.028C143.952 273.455 135.341 277.022 132.852 284.564L132.194 286.557C130.172 286.849 128.104 287 126 287 124.257 287 122.539 286.896 120.851 286.695L120.148 284.564C117.659 277.022 109.048 273.455 101.955 277.028L99.8114 278.108C96.8406 275.823 94.1766 273.159 91.8921 270.189L92.9717 268.045C96.5446 260.952 92.9779 252.341 85.4359 249.852zM126 261C135.389 261 143 253.389 143 244S135.389 227 126 227C116.611 227 109 234.611 109 244s7.611 17 17 17z" fill="#fafafa" stroke="#c7c7f2" stroke-width="2"/><circle cx="363" cy="148" r="59.5" stroke="#c7c7f2"/><path d="M317 144h16" stroke="#c7c7f2" stroke-linecap="round"/><path d="M323 128h24" stroke="#c7c7f2" stroke-linecap="round"/><path d="M314 136h8" stroke="#c7c7f2" stroke-linecap="round"/><path d="M320 120h16" stroke="#c7c7f2" stroke-linecap="round"/><path d="M322 168h8" stroke="#c7c7f2" stroke-linecap="round"/><path d="M326 136h8" stroke="#c7c7f2" stroke-linecap="round"/><path d="M315 160h16" stroke="#c7c7f2" stroke-linecap="round"/><path d="M332 176h16" stroke="#c7c7f2" stroke-linecap="round"/><path d="M341 184h8" stroke="#c7c7f2" stroke-linecap="round"/><path d="M365 184h20" stroke="#c7c7f2" stroke-linecap="round"/><path d="M351 192h24" stroke="#c7c7f2" stroke-linecap="round"/><path d="M373 176h16" stroke="#c7c7f2" stroke-linecap="round"/><path d="M334 168h16" stroke="#c7c7f2" stroke-linecap="round"/><path d="M329 112h16" stroke="#c7c7f2" stroke-linecap="round"/><path d="M349 112h24" stroke="#c7c7f2" stroke-linecap="round"/><path d="M353 104h24" stroke="#c7c7f2" stroke-linecap="round"/><path d="M319 152h24" stroke="#c7c7f2" stroke-linecap="round"/><path d="M332 122.99C342.25 122.781 352.185 119.361 360.4 113.2L363 111.25 365.6 113.2C373.815 119.361 383.75 122.781 394 122.99v24.84C394 161.277 387.073 173.775 375.67 180.902L363 188.821 350.33 180.902C338.927 173.775 332 161.277 332 147.83V122.99z" fill="#fafafa" stroke="#c7c7f2" stroke-width="2"/><path d="M366 148.618C366 148.29 366.197 147.895 366.628 147.441 367.477 146.545 368 145.333 368 144c0-2.761-2.23899999999998-5-5-5s-5 2.239-5 5C358 145.333 358.523 146.545 359.372 147.441 359.803 147.895 360 148.29 360 148.618V152C360 153.657 361.343 155 363 155S366 153.657 366 152V148.618z" fill="#fff" stroke="#c7c7f2" stroke-width="2"/><circle cx="15" cy="60" r="59.5" stroke="#c7c7f2"/><path d="M-25 19c31.24194.0 48.7581.0 80 0" stroke="#c7c7f2" stroke-width="2"/><circle cx="15" cy="19" r="11" fill="#fafafa" stroke="#c7c7f2" stroke-width="2"/><path fill-rule="evenodd" clip-rule="evenodd" d="M20.7071 15.2929C21.0976 15.6834 21.0976 16.3166 20.7071 16.7071l-6 6C14.3166 23.0976 13.6834 23.0976 13.2929 22.7071l-3-3C9.90237 19.3166 9.90237 18.6834 10.2929 18.2929 10.6834 17.9024 11.3166 17.9024 11.7071 18.2929L14 20.5858l5.2929-5.2929C19.6834 14.9024 20.3166 14.9024 20.7071 15.2929z" fill="#c7c7f2"/><circle cx="55" cy="19" r="11" fill="#fafafa" stroke="#c7c7f2" stroke-width="2"/><path fill-rule="evenodd" clip-rule="evenodd" d="M60.7071 15.2929C61.0976 15.6834 61.0976 16.3166 60.7071 16.7071l-6 6C54.3166 23.0976 53.6834 23.0976 53.2929 22.7071l-3-3C49.9024 19.3166 49.9024 18.6834 50.2929 18.2929 50.6834 17.9024 51.3166 17.9024 51.7071 18.2929L54 20.5858l5.2929-5.2929C59.6834 14.9024 60.3166 14.9024 60.7071 15.2929z" fill="#c7c7f2"/><path d="M-16 110V54c0-2.2091 1.7909-4 4-4H42c2.2091.0 4 1.7909 4 4v56" stroke="#c7c7f2" stroke-width="2" stroke-linecap="round"/><path d="M-10 113V56H40v57" stroke="#c7c7f2" stroke-linecap="round"/><path d="M20 47v1h1 9v9H0V48H9h1V47c0-2.7614 2.2386-5 5-5 2.7614.0 5 2.2386 5 5z" fill="#fafafa" stroke="#c7c7f2" stroke-width="2"/><circle r="2" transform="matrix(-1 0 0 1 15 47)" fill="#c7c7f2"/><path d="M-5 85.5V104H34" stroke="#c7c7f2" stroke-width="2" stroke-linecap="round"/><path d="M-.5 1e2C.5 97.8333 4.4 92 6 92c2 0 5 4 7 2.5s4.1328-6.0531 6.5-7c2.5-1 8 2.5 11-2.5" stroke="#c7c7f2" stroke-width="2" stroke-linecap="round"/><rect x="-1" y="64" width="30" height="2" rx="1" fill="#c7c7f2"/><rect x="-1" y="69" width="36" height="2" rx="1" fill="#c7c7f2"/><rect x="-1" y="74" width="24" height="2" rx="1" fill="#c7c7f2"/><rect x="-6" y="108" width="24" height="2" rx="1" fill="#c7c7f2"/></svg>