<svg width="14" height="14" viewBox="0 0 14 14" fill="none" xmlns="http://www.w3.org/2000/svg"><path fill-rule="evenodd" clip-rule="evenodd" d="M9.47653 10.8907C8.49572 11.5892 7.29583 12 6 12 2.68629 12 0 9.31371.0 6 0 2.68629 2.68629.0 6 0s6 2.68629 6 6c0 1.29583-.4108 2.49572-1.1093 3.47653l2.8164 2.81637C14.0976 12.6834 14.0976 13.3166 13.7071 13.7071 13.3166 14.0976 12.6834 14.0976 12.2929 13.7071L9.47653 10.8907zM10 6c0 2.20914-1.79086 4-4 4-2.20914.0-4-1.79086-4-4C2 3.79086 3.79086 2 6 2s4 1.79086 4 4z" fill="#f1f1ff"/></svg>