<svg xmlns="http://www.w3.org/2000/svg" xmlns:xlink="http://www.w3.org/1999/xlink" viewBox="0 0 100 100" enable-background="new 0 0 100 100"><path d="M89.23 82.465l-22.699-22.7.48-.483c3.72-5.206 5.934-11.57 5.934-18.46.0-17.573-14.246-31.818-31.815-31.818-17.574.0-31.825 14.245-31.825 31.818.0 17.571 14.251 31.821 31.825 31.821 6.821.0 13.116-2.185 18.298-5.843l22.734 22.734c1.953 1.952 5.119 1.952 7.068.0C91.184 87.58 91.184 84.416 89.23 82.465zM19.247 40.821c0-12.105 9.811-21.918 21.922-21.918 12.098.0 21.915 9.813 21.915 21.918.0 12.106-9.817 21.922-21.915 21.922C29.058 62.743 19.247 52.927 19.247 40.821z"/></svg>