<svg width="64" height="64" viewBox="0 0 64 64" fill="none" xmlns="http://www.w3.org/2000/svg"><g clip-path="url(#clip0)"><path d="M11.0848 35.264 1.28 44.4224H5.856V62.72H16.3136V44.4224h4.576L11.0848 35.264z" fill="#dfd7ff"/><path d="M32 18.272l-9.8048 9.152h4.576V62.72H37.2288V27.424h4.576L32 18.272z" fill="#cab5ff"/><path d="M52.9152 1.28003 43.1104 10.432h4.576V62.72H58.144V10.432H62.72L52.9152 1.28003z" fill="#ac7fff"/><path d="M16.3136 64C15.9741 64 15.6485 63.8651 15.4085 63.6251 15.1684 63.385 15.0336 63.0595 15.0336 62.72V44.416C15.0336 44.0765 15.1684 43.7509 15.4085 43.5109 15.6485 43.2708 15.9741 43.136 16.3136 43.136h1.3312l-6.56-6.1184L4.52479 43.136h1.3312C6.19547 43.136 6.52104 43.2708 6.76109 43.5109 7.00113 43.7509 7.13599 44.0765 7.13599 44.416V61.44H11.136C11.4755 61.44 11.801 61.5748 12.0411 61.8149 12.2811 62.0549 12.416 62.3805 12.416 62.72S12.2811 63.385 12.0411 63.6251C11.801 63.8651 11.4755 64 11.136 64H5.85599C5.51651 64 5.19094 63.8651 4.95089 63.6251 4.71085 63.385 4.57599 63.0595 4.57599 62.72V45.696h-3.296C1.02362 45.6951.773414 45.6172.561798 45.4725.350182 45.3278.186904 45.1228.0931167 44.8842-670404e-9 44.6456-.0206446 44.3843.0357817 44.1343.0922081 43.8842.222435 43.6568.409591 43.4816L10.24 34.3296C10.477 34.1082 10.7893 33.9851 11.1136 33.9851 11.4379 33.9851 11.7501 34.1082 11.9872 34.3296l9.7728 9.152C21.9471 43.6568 22.0774 43.8842 22.1338 44.1343 22.1902 44.3843 22.1703 44.6456 22.0765 44.8842 21.9827 45.1228 21.8194 45.3278 21.6078 45.4725 21.3962 45.6172 21.146 45.6951 20.8896 45.696h-3.296V62.72C17.5936 63.0595 17.4587 63.385 17.2187 63.6251 16.9786 63.8651 16.6531 64 16.3136 64z" fill="#380d75"/><path d="M37.2288 64H26.7712C26.4317 64 26.1061 63.8651 25.8661 63.6251 25.6261 63.385 25.4912 63.0595 25.4912 62.72V28.704h-3.296C21.9388 28.7031 21.6886 28.6252 21.477 28.4805S21.1021 28.1308 21.0083 27.8922C20.9145 27.6536 20.8946 27.3924 20.951 27.1423S21.1376 26.6648 21.3248 26.4896l9.8048-9.152C31.3663 17.1181 31.6772 16.9961 32 16.9961S32.6337 17.1181 32.8704 17.3376l9.8048 9.152C42.8624 26.6648 42.9926 26.8922 43.049 27.1423 43.1054 27.3924 43.0855 27.6536 42.9917 27.8922 42.8979 28.1308 42.7346 28.3358 42.523 28.4805 42.3114 28.6252 42.0612 28.7031 41.8048 28.704h-3.296V57.5424C38.5088 57.8819 38.3739 58.2074 38.1339 58.4475 37.8939 58.6875 37.5683 58.8224 37.2288 58.8224S36.5638 58.6875 36.3237 58.4475C36.0837 58.2074 35.9488 57.8819 35.9488 57.5424V27.424C35.9488 27.0845 36.0837 26.7589 36.3237 26.5189 36.5638 26.2788 36.8893 26.144 37.2288 26.144H38.56L32 20.0256 25.44 26.144h1.3312C27.1107 26.144 27.4362 26.2788 27.6763 26.5189 27.9163 26.7589 28.0512 27.0845 28.0512 27.424V61.44h9.1776C37.5683 61.44 37.8939 61.5748 38.1339 61.8149 38.3739 62.0549 38.5088 62.3805 38.5088 62.72S38.3739 63.385 38.1339 63.6251C37.8939 63.8651 37.5683 64 37.2288 64z" fill="#380d75"/><path d="M58.144 64C57.8045 64 57.479 63.8652 57.2389 63.6251 56.9989 63.3851 56.864 63.0595 56.864 62.72V10.432C56.864 10.0926 56.9989 9.767 57.2389 9.52695 57.479 9.2869 57.8045 9.15205 58.144 9.15205h1.3312l-6.56-6.1184-6.56 6.1184h1.3312C48.0259 9.15205 48.3515 9.2869 48.5915 9.52695 48.8315 9.767 48.9664 10.0926 48.9664 10.432V61.44h4C53.3059 61.44 53.6315 61.5749 53.8715 61.8149 54.1116 62.055 54.2464 62.3806 54.2464 62.72 54.2464 63.0595 54.1116 63.3851 53.8715 63.6251 53.6315 63.8652 53.3059 64 52.9664 64h-5.28C47.3469 64 47.0214 63.8652 46.7813 63.6251 46.5413 63.3851 46.4064 63.0595 46.4064 62.72V11.712h-3.296C42.854 11.7112 42.6038 11.6333 42.3922 11.4886 42.1806 11.3439 42.0173 11.1389 41.9235 10.9003 41.8297 10.6617 41.8098 10.4004 41.8662 10.1503 41.9226 9.90025 42.0528 9.67286 42.24 9.49765L52.0448.345647C52.28.133372 52.5856.0158691 52.9024.0158691S53.5248.133372 53.76.345647L63.5648 9.49765C63.7505 9.67135 63.8802 9.89642 63.9375 10.1442 63.9947 10.3919 63.9769 10.6511 63.8863 10.8886 63.7957 11.1262 63.6363 11.3314 63.4286 11.478 63.2209 11.6247 62.9742 11.7062 62.72 11.712H59.424V62.72C59.424 63.0595 59.2891 63.3851 59.0491 63.6251 58.8091 63.8652 58.4835 64 58.144 64z" fill="#380d75"/></g><defs><clipPath id="clip0"><rect width="64" height="64" fill="#fff"/></clipPath></defs></svg>