<svg width="64" height="64" viewBox="0 0 64 64" fill="none" xmlns="http://www.w3.org/2000/svg"><g clip-path="url(#clip0)"><path d="M8.02557 27.9232V62.72H55.9744V27.9232H8.02557zM34.2144 47.9168v4.48C34.2144 52.9841 33.9811 53.5474 33.5658 53.9626 33.1505 54.3779 32.5873 54.6112 32 54.6112S30.8494 54.3779 30.4342 53.9626C30.0189 53.5474 29.7856 52.9841 29.7856 52.3968v-4.48C28.9967 47.4342 28.387 46.707 28.0495 45.846 27.7119 44.9849 27.6649 44.0372 27.9157 43.147 28.1664 42.2568 28.7011 41.4729 29.4383 40.9145 30.1756 40.3562 31.0751 40.0541 32 40.0541 32.9248 40.0541 33.8243 40.3562 34.5616 40.9145 35.2989 41.4729 35.8336 42.2568 36.0843 43.147S36.288 44.9849 35.9504 45.846C35.6129 46.707 35.0033 47.4342 34.2144 47.9168z" fill="#fca121"/><path d="M48.7808 29.2032C48.4413 29.2032 48.1158 29.0683 47.8757 28.8283 47.6357 28.5882 47.5008 28.2627 47.5008 27.9232V18.0608c0-4.1111-1.6331-8.0538-4.5401-10.96072C40.0538 4.19312 36.1111 2.56 32 2.56S23.9463 4.19312 21.0393 7.10008c-2.907 2.90692-4.5401 6.84962-4.5401 10.96072v9.8624C16.4992 28.2627 16.3644 28.5882 16.1243 28.8283 15.8843 29.0683 15.5587 29.2032 15.2192 29.2032 14.8797 29.2032 14.5542 29.0683 14.3141 28.8283 14.0741 28.5882 13.9392 28.2627 13.9392 27.9232V18.0608c0-4.79 1.9028-9.38386 5.2899-12.77091C22.6162 1.90283 27.21.0 32 0s9.3839 1.90283 12.7709 5.28989c3.3871 3.38705 5.2899 7.98091 5.2899 12.77091v9.8624C50.0608 28.2627 49.926 28.5882 49.6859 28.8283 49.4459 29.0683 49.1203 29.2032 48.7808 29.2032z" fill="#380d75"/><path d="M55.9744 64.0001H8.02561C7.68613 64.0001 7.36056 63.8652 7.12051 63.6252 6.88046 63.3851 6.74561 63.0595 6.74561 62.7201V33.0497C6.74561 32.7102 6.88046 32.3846 7.12051 32.1446 7.36056 31.9045 7.68613 31.7697 8.02561 31.7697 8.36508 31.7697 8.69066 31.9045 8.9307 32.1446 9.17075 32.3846 9.30561 32.7102 9.30561 33.0497V61.4401H55.9744C56.3139 61.4401 56.6395 61.5749 56.8795 61.815 57.1196 62.055 57.2544 62.3806 57.2544 62.7201 57.2544 63.0595 57.1196 63.3851 56.8795 63.6252 56.6395 63.8652 56.3139 64.0001 55.9744 64.0001z" fill="#380d75"/><path d="M55.9744 58.88C55.6349 58.88 55.3094 58.7451 55.0693 58.5051 54.8293 58.265 54.6944 57.9395 54.6944 57.6V29.2032H8.02561c-.33948.0-.66505-.134899999999998-.9051-.3749C6.88046 28.5882 6.74561 28.2627 6.74561 27.9232 6.74561 27.5837 6.88046 27.2581 7.12051 27.0181 7.36056 26.778 7.68613 26.6432 8.02561 26.6432H55.9744C56.3139 26.6432 56.6395 26.778 56.8795 27.0181 57.1196 27.2581 57.2544 27.5837 57.2544 27.9232V57.6C57.2544 57.9395 57.1196 58.265 56.8795 58.5051 56.6395 58.7451 56.3139 58.88 55.9744 58.88z" fill="#380d75"/><path d="M32 55.9104C31.0738 55.9087 30.1859 55.54 29.531 54.885 28.876 54.23 28.5073 53.3422 28.5056 52.416v-3.84C27.7017 47.9195 27.0993 47.0497 26.7675 46.0663 26.4357 45.0829 26.3881 44.0259 26.63 43.0166 26.872 42.0074 27.3937 41.0868 28.1353 40.3607 28.8769 39.6347 29.8083 39.1325 30.8224 38.912 31.6291 38.7371 32.4646 38.7451 33.2678 38.9353 34.0709 39.1255 34.8214 39.4931 35.4639 40.0111 36.1065 40.5291 36.625 41.1844 36.9813 41.9289 37.3377 42.6734 37.5228 43.4882 37.5232 44.3136 37.5265 45.1307 37.3458 45.9381 36.9946 46.676 36.6434 47.4138 36.1307 48.0632 35.4944 48.576v3.84C35.4927 53.3422 35.124 54.23 34.4691 54.885 33.8141 55.54 32.9263 55.9087 32 55.9104zM32 41.344C31.7847 41.3435 31.57 41.3671 31.36 41.4144 30.7837 41.5412 30.2586 41.8379 29.8527 42.2662 29.4467 42.6945 29.1786 43.2346 29.0828 43.8169 28.987 44.3992 29.068 44.9968 29.3154 45.5326 29.5627 46.0683 29.9651 46.5176 30.4704 46.8224 30.657 46.9374 30.8109 47.0985 30.9173 47.2902 31.0238 47.4818 31.0793 47.6975 31.0784 47.9168v4.48C31.0784 52.6446 31.1769 52.8822 31.3521 53.0575 31.5273 53.2327 31.765 53.3312 32.0128 53.3312S32.4983 53.2327 32.6735 53.0575C32.8488 52.8822 32.9472 52.6446 32.9472 52.3968v-4.48C32.9464 47.6975 33.0018 47.4818 33.1083 47.2902 33.2147 47.0985 33.3686 46.9374 33.5552 46.8224 34.1055 46.4854 34.5305 45.9776 34.7653 45.3765S35.0318 44.114 34.8556 43.4933C34.6793 42.8725 34.3049 42.3264 33.7893 41.9383 33.2737 41.5503 32.6453 41.3415 32 41.344z" fill="#380d75"/></g><defs><clipPath id="clip0"><rect width="64" height="64" fill="#fff"/></clipPath></defs></svg>