<svg xmlns="http://www.w3.org/2000/svg" width="16" height="16" viewBox="0 0 16 16"><path fill="#e9be74" d="M7.4541 1.6942c.20196-.48558.88983-.48558 1.0918.0l1.5848 3.81036C10.1667 5.59112 10.2481 5.65026 10.3416 5.65776l4.1136.32978C14.9794 6.02957 15.192 6.68377 14.7926 7.0259L11.6584 9.71062C11.5872 9.77161 11.5561 9.8673 11.5779 9.95849l.9575 4.01421C12.6574 14.4842 12.1009 14.8885 11.6521 14.6144L8.13031 12.4633C8.05031 12.4144 7.94969 12.4144 7.86969 12.4633L4.34786 14.6144C3.89906 14.8885 3.34256 14.4842 3.46458 13.9727l.95753-4.01421C4.44387 9.8673 4.41277 9.77161 4.34158 9.71062L1.20744 7.0259c-.3994-.34213-.18684-.99633.33738-1.03836l4.11361-.32978C5.75188 5.65026 5.83328 5.59112 5.86928 5.50456L7.4541 1.6942z"/></svg>