<svg width="64" height="64" viewBox="0 0 64 64" fill="none" xmlns="http://www.w3.org/2000/svg"><g clip-path="url(#clip0)"><path d="M10.9696 9.56165C11.7496 8.87654 12.7606 8.51318 13.7983 8.54502 14.8359 8.57686 15.8228 9.00154 16.5593 9.73318c.7365.73162 1.1678 1.71562 1.2065 2.75312C17.8045 13.5237 17.4479 14.5371 16.768 15.3216" fill="#ff675f"/><path d="M48.64 47.168C49.4283 46.512 50.4338 46.175 51.4583 46.2235 52.4828 46.272 53.4519 46.7025 54.1747 47.4301 54.8976 48.1577 55.3216 49.1297 55.3633 50.1545 55.405 51.1793 55.0613 52.1825 54.4 52.9664" fill="#ff675f"/><path d="M50.8224 17.28c2.2657.0 4.1024-1.8338 4.1024-4.096.0-2.2621-1.8367-4.09599-4.1024-4.09599-2.2657.0-4.1024 1.83389-4.1024 4.09599.0 2.2622 1.8367 4.096 4.1024 4.096z" fill="#ac7fff"/><path d="M31.9872 9.48485c2.2657.0 4.1024-1.83385 4.1024-4.096.0-2.26216-1.8367-4.096-4.1024-4.096-2.2657.0-4.1024 1.83384-4.1024 4.096.0 2.26215 1.8367 4.096 4.1024 4.096z" fill="#fca121"/><path d="M58.6176 36.1024c2.2657.0 4.1024-1.8338 4.1024-4.096s-1.8367-4.096-4.1024-4.096c-2.2657.0-4.1024 1.8338-4.1024 4.096s1.8367 4.096 4.1024 4.096z" fill="#fca121"/><path d="M62.72 64C62.3811 63.9986 62.0565 63.8628 61.8176 63.6224L.377601 2.18239C.1392 1.94256.00538635 1.61814.00538635 1.27999.00538635.941828.1392.61741.377601.377586.617425.139185.941843.00537109 1.28.00537109c.33816.0.66258.13381391.9024.37221491L63.6224 61.8176C63.8003 61.9966 63.9214 62.2242 63.9703 62.4717 64.0193 62.7193 63.9939 62.9759 63.8975 63.2091 63.8011 63.4423 63.6378 63.6418 63.4283 63.7826 63.2188 63.9233 62.9724 63.9989 62.72 64z" fill="#380d75"/><path d="M16.768 16.64C16.43 16.6403 16.1056 16.5069 15.8656 16.2688 15.7466 16.15 15.6522 16.0088 15.5878 15.8534 15.5233 15.698 15.4902 15.5315 15.4902 15.3632 15.4902 15.195 15.5233 15.0285 15.5878 14.8731 15.6522 14.7177 15.7466 14.5765 15.8656 14.4576 16.1375 14.1977 16.3546 13.886 16.5043 13.5409 16.654 13.1958 16.7332 12.8243 16.7373 12.4482 16.7414 12.072 16.6702 11.6989 16.528 11.3507 16.3858 11.0024 16.1754 10.6861 15.9092 10.4203 15.643 10.1546 15.3264 9.9447 14.9779 9.80305 14.6295 9.6614 14.2562 9.59084 13.8801 9.5955 13.5039 9.60017 13.1325 9.67998 12.7877 9.83023 12.4428 9.98048 12.1315 10.1982 11.872 10.4704c-.2402.2402-.565899999999999.3752-.9056.3752s-.6654-.135-.9056-.3752C9.82062 10.2303 9.68568 9.90451 9.68568 9.56484 9.68568 9.39666 9.71881 9.23012 9.78317 9.07473 9.84753 8.91935 9.94187 8.77817 10.0608 8.65924c1.012-1.00597 2.381-1.57062 3.808-1.57062s2.796.56465 3.808 1.57062c1.0087 1.00931 1.5753 2.37786 1.5753 3.80476.0 1.427-.566599999999998 2.7955-1.5753 3.8048C17.5572 16.3875 17.4153 16.4813 17.2594 16.545 17.1034 16.6087 16.9365 16.641 16.768 16.64z" fill="#380d75"/><path d="M54.4 54.2464C54.2311 54.2466 54.0638 54.2133 53.9079 54.1485 53.7519 54.0837 53.6103 53.9886 53.4912 53.8688 53.3722 53.75 53.2778 53.6088 53.2134 53.4534S53.1158 53.1315 53.1158 52.9632C53.1158 52.795 53.149 52.6285 53.2134 52.4731S53.3722 52.1765 53.4912 52.0576C54.0192 51.5285 54.3157 50.8115 54.3157 50.064S54.0192 48.5996 53.4912 48.0704C52.9594 47.5452 52.2419 47.2506 51.4944 47.2506S50.0295 47.5452 49.4976 48.0704C49.2545 48.2915 48.9357 48.4106 48.6072 48.4031S47.9657 48.2621 47.733 48.0302C47.5002 47.7982 47.3656 47.4857 47.3569 47.1572 47.3482 46.8287 47.4662 46.5095 47.6864 46.2656c1.0093-1.0087 2.3779-1.5753 3.8048-1.5753 1.427.0 2.7955.566600000000001 3.8048 1.5753C55.7968 46.764 56.1942 47.3564 56.4654 48.0088 56.7365 48.6612 56.8761 49.3607 56.8761 50.0672 56.8761 50.7738 56.7365 51.4733 56.4654 52.1257 56.1942 52.7781 55.7968 53.3705 55.296 53.8688 55.0586 54.1077 54.7367 54.2433 54.4 54.2464z" fill="#380d75"/><path d="M50.8224 18.5601C50.1102 18.5671 49.4038 18.432 48.7445 18.1628 48.0851 17.8936 47.4861 17.4956 46.9824 16.992 46.0959 16.1121 45.5419 14.9521 45.4144 13.7095 45.287 12.467 45.5942 11.2187 46.2836 10.1771 46.973 9.13559 48.0021 8.36514 49.1957 7.99696c1.1935-.36818 2.4778-.31135 3.6342.16084C53.9862 8.62998 54.9432 9.48833 55.5379 10.5867 56.1326 11.6851 56.3283 12.9557 56.0916 14.1821S55.2005 16.515 54.2398 17.3132C53.2791 18.1115 52.0714 18.5521 50.8224 18.5601zm-1.9968-3.3793C49.2871 15.6428 49.8944 15.9305 50.5442 15.9948 51.194 16.0592 51.8459 15.8963 52.3891 15.5338 52.9322 15.1714 53.3328 14.6318 53.5228 14.0071 53.7127 13.3824 53.6801 12.7112 53.4306 12.1078 53.1812 11.5044 52.7302 11.0061 52.1545 10.6979 51.5789 10.3897 50.9142 10.2907 50.2737 10.4176 49.6332 10.5446 49.0565 10.8896 48.642 11.3941 48.2274 11.8985 48.0005 12.5311 48 13.184 48.0001 13.9327 48.297 14.6507 48.8256 15.1808z" fill="#380d75"/><path d="M32 10.7648C30.9352 10.7648 29.8943 10.449 29.009 9.85726 28.1237 9.26555 27.4339 8.42455 27.0267 7.44068 26.6195 6.4568 26.5133 5.37425 26.7215 4.32999 26.9297 3.28573 27.4429 2.32669 28.1963 1.57421 28.9497.821721 29.9094.309602 30.9539.102645c1.0445-.206958 2.1269-.09945519 3.1103.308907C35.0476.819915 35.8877 1.51079 36.4784 2.39676S37.3836 4.32399 37.3824 5.3888C37.3807 6.81519 36.8129 8.18259 35.8037 9.1906c-1.0093 1.008-2.3773 1.5742-3.8037 1.5742zM32 2.56C31.4418 2.56 30.8961 2.72553 30.4319 3.03566 29.9678 3.34579 29.606 3.78659 29.3924 4.30232 29.1788 4.81804 29.1229 5.38553 29.2318 5.93303 29.3407 6.48052 29.6095 6.98342 30.0042 7.37814c.3948.39472.8977.66353 1.4452.77243S32.5643 8.20358 33.0801 7.98996C33.5958 7.77634 34.0366 7.41458 34.3467 6.95044 34.6569 6.4863 34.8224 5.94062 34.8224 5.3824 34.8207 4.63437 34.5228 3.91747 33.9939 3.38853 33.4649 2.85959 32.748 2.56169 32 2.56z" fill="#380d75"/><path d="M58.6176 37.3888C57.5533 37.3888 56.513 37.0733 55.628 36.4822 54.743 35.891 54.0531 35.0508 53.6455 34.0677 53.238 33.0845 53.131 32.0026 53.3382 30.9587 53.5453 29.9148 54.0573 28.9558 54.8094 28.2028 55.5615 27.4498 56.52 26.9366 57.5636 26.7282 58.6073 26.5198 59.6893 26.6255 60.6729 27.0319 61.6565 27.4383 62.4976 28.1272 63.0898 29.0115 63.682 29.8958 63.9987 30.9358 64 32 64 33.4281 63.4331 34.7978 62.4239 35.8082 61.4147 36.8186 60.0457 37.3871 58.6176 37.3888zm0-8.1984C58.0588 29.1904 57.5127 29.3563 57.0482 29.667 56.5838 29.9777 56.2221 30.4192 56.0088 30.9357 55.7956 31.4522 55.7405 32.0203 55.8504 32.5682 55.9603 33.116 56.2304 33.6189 56.6264 34.0131 57.0224 34.4073 57.5265 34.6751 58.0749 34.7825 58.6232 34.89 59.1911 34.8323 59.7066 34.6167 60.2221 34.4011 60.662 34.0374 60.9706 33.5715 61.2792 33.1057 61.4425 32.5588 61.44 32 61.4366 31.2537 61.1378 30.5391 60.6088 30.0126 60.0799 29.486 59.3639 29.1904 58.6176 29.1904z" fill="#380d75"/><path d="M32 59.8976C26.9509 59.9078 21.9938 58.5476 17.657 55.9619c-4.3367-2.5856-7.89048-6.2998-10.28229-10.7464-2.39181-4.4466-3.53201-9.459-3.29903-14.5027.23297-5.0437 1.83039-9.9296 4.62193-14.1368C8.7909 16.4361 8.91084 16.3159 9.05058 16.2223 9.19032 16.1287 9.34713 16.0636 9.51204 16.0306 9.67696 15.9976 9.84676 15.9974 10.0117 16.0301 10.1767 16.0627 10.3337 16.1275 10.4736 16.2208 10.6135 16.3141 10.7337 16.4341 10.8273 16.5738 10.9209 16.7135 10.986 16.8703 11.019 17.0353 11.052 17.2002 11.0522 17.37 11.0196 17.535 10.9869 17.7 10.9221 17.8569 10.8288 17.9968 7.59314 22.8762 6.14567 28.725 6.73212 34.5503S9.90279 45.8185 14.0461 49.9551c4.1434 4.1365 9.5905 6.7118 15.4167 7.2887C35.2891 57.8207 41.1355 56.3637 46.0096 53.12 46.1495 53.0267 46.3065 52.9619 46.4715 52.9293 46.6365 52.8966 46.8063 52.8968 46.9712 52.9298 47.1361 52.9628 47.2929 53.0279 47.4326 53.1215 47.5724 53.2151 47.6923 53.3353 47.7856 53.4752 47.8789 53.6152 47.9437 53.7721 47.9764 53.9371 48.009 54.1021 48.0088 54.2719 47.9758 54.4368 47.9428 54.6017 47.8777 54.7585 47.7841 54.8983 47.6905 55.038 47.5703 55.1579 47.4304 55.2512 42.858 58.2884 37.4892 59.905 32 59.8976z" fill="#380d75"/><path d="M54.1248 48.0704C53.8933 48.07 53.6662 48.0068 53.4678 47.8875 53.2693 47.7682 53.107 47.5974 52.998 47.3931 52.8889 47.1889 52.8374 46.9589 52.8487 46.7277 52.8601 46.4964 52.9339 46.2726 53.0624 46.08 55.0988 43.0456 56.4486 39.6034 57.0176 35.9936 57.0441 35.8255 57.1034 35.6643 57.1922 35.5191 57.281 35.3739 57.3975 35.2477 57.5351 35.1475 57.6726 35.0474 57.8286 34.9753 57.994 34.9355 58.1594 34.8956 58.3311 34.8887 58.4992 34.9152 58.6673 34.9417 58.8285 35.001 58.9737 35.0898 59.1189 35.1786 59.2451 35.2951 59.3453 35.4326 59.4454 35.5702 59.5174 35.7262 59.5573 35.8916 59.5972 36.057 59.6041 36.2287 59.5776 36.3968c-.6235 3.9755-2.1112 7.7658-4.3584 11.104C55.0995 47.6803 54.9365 47.8266 54.7452 47.9261 54.5538 48.0257 54.3404 48.0753 54.1248 48.0704z" fill="#380d75"/><path d="M58.2848 29.0944C57.9771 29.0981 57.6783 28.9908 57.4432 28.7922 57.2081 28.5935 57.0525 28.3169 57.0048 28.0128 56.375 24.0704 54.8248 20.332 52.48 17.1008 52.3705 16.9659 52.2896 16.8101 52.2423 16.6428 52.1949 16.4756 52.1821 16.3005 52.2046 16.1282 52.2272 15.9559 52.2846 15.79 52.3733 15.6406 52.462 15.4911 52.5803 15.3614 52.7208 15.2591 52.8613 15.1569 53.0212 15.0843 53.1907 15.0459 53.3601 15.0074 53.5357 15.0039 53.7066 15.0355 53.8775 15.0671 54.0401 15.1332 54.1846 15.2297 54.3292 15.3262 54.4525 15.4511 54.5472 15.5968 57.133 19.155 58.8433 23.2729 59.5392 27.616 59.5907 27.9512 59.5071 28.2931 59.3067 28.5667 59.1063 28.8403 58.8055 29.0232 58.4704 29.0752 58.4092 29.0871 58.3471 29.0936 58.2848 29.0944z" fill="#380d75"/><path d="M47.6544 11.7568C47.3862 11.7583 47.1242 11.6755 46.9056 11.52c-3.2555-2.37139-7.0289-3.93341-11.008-4.55678C35.5731 6.89978 35.2857 6.71322 35.0957 6.44264 34.9057 6.17205 34.8277 5.83842 34.8782 5.51165 34.9287 5.18488 35.1036 4.89031 35.3664 4.68965S35.9595 4.39782 36.288 4.43522c4.3813.68759 8.5362 2.40745 12.1216 5.0176C48.6263 9.61254 48.7872 9.83651 48.8693 10.0929 48.9513 10.3493 48.9505 10.625 48.8669 10.8809 48.7832 11.1368 48.621 11.3598 48.4034 11.5182 48.1857 11.6766 47.9236 11.7623 47.6544 11.7632V11.7568z" fill="#380d75"/><path d="M17.2224 11.104C16.9466 11.1053 16.6777 11.0175 16.4558 10.8536 16.234 10.6898 16.071 10.4586 15.9911 10.1946 15.9113 9.93056 15.9188 9.64782 16.0127 9.38845 16.1066 9.12908 16.2817 8.90697 16.512 8.75521 19.8785 6.513 23.6945 5.03418 27.6928 4.4224 28.0213 4.385 28.3516 4.47618 28.6144 4.67683 28.8772 4.87749 29.0522 5.17206 29.1026 5.49883 29.1531 5.82561 29.0751 6.15923 28.8851 6.42982 28.6951 6.70041 28.4077 6.88696 28.0832 6.9504c-3.6345.55008-7.104 1.89154-10.1632 3.9296C17.7143 11.0211 17.4718 11.0989 17.2224 11.104z" fill="#380d75"/><path d="M39.8464 50.8351H11.9488C11.6093 50.8351 11.2838 50.7003 11.0437 50.4602 10.8037 50.2202 10.6688 49.8946 10.6688 49.5551 10.6688 49.2157 10.8037 48.8901 11.0437 48.65 11.2838 48.41 11.6093 48.2751 11.9488 48.2751H39.8464C40.1859 48.2751 40.5115 48.41 40.7515 48.65 40.9916 48.8901 41.1264 49.2157 41.1264 49.5551 41.1264 49.8946 40.9916 50.2202 40.7515 50.4602 40.5115 50.7003 40.1859 50.8351 39.8464 50.8351z" fill="#380d75"/><path d="M31.584 41.7728H7.744C7.40453 41.7728 7.07895 41.6379 6.83891 41.3979 6.59886 41.1578 6.464 40.8322 6.464 40.4928 6.464 40.1533 6.59886 39.8277 6.83891 39.5877 7.07895 39.3476 7.40453 39.2128 7.744 39.2128h23.84C31.9235 39.2128 32.2491 39.3476 32.4891 39.5877 32.7291 39.8277 32.864 40.1533 32.864 40.4928 32.864 40.8322 32.7291 41.1578 32.4891 41.3979 32.2491 41.6379 31.9235 41.7728 31.584 41.7728z" fill="#380d75"/><path d="M22.5088 32.7104H7.744C7.40453 32.7104 7.07895 32.5755 6.83891 32.3355 6.59886 32.0954 6.464 31.7699 6.464 31.4304 6.464 31.0909 6.59886 30.7653 6.83891 30.5253 7.07895 30.2852 7.40453 30.1504 7.744 30.1504H22.5088C22.8483 30.1504 23.1739 30.2852 23.4139 30.5253 23.6539 30.7653 23.7888 31.0909 23.7888 31.4304 23.7888 31.7699 23.6539 32.0954 23.4139 32.3355 23.1739 32.5755 22.8483 32.7104 22.5088 32.7104z" fill="#380d75"/><path d="M13.2032 23.6415H7.744c-.33947.0-.66505-.134800000000002-.90509-.3749C6.59886 23.0266 6.464 22.701 6.464 22.3615 6.464 22.0221 6.59886 21.6965 6.83891 21.4564 7.07895 21.2164 7.40453 21.0815 7.744 21.0815h5.4592C13.5427 21.0815 13.8683 21.2164 14.1083 21.4564 14.3483 21.6965 14.4832 22.0221 14.4832 22.3615 14.4832 22.701 14.3483 23.0266 14.1083 23.2666 13.8683 23.5067 13.5427 23.6415 13.2032 23.6415z" fill="#380d75"/></g><defs><clipPath id="clip0"><rect width="64" height="64" fill="#fff"/></clipPath></defs></svg>