<svg id="mscgen_js-svg-__svg" class="mscgen_js-svg-__svg" xmlns="http://www.w3.org/2000/svg" xmlns:xlink="http://www.w3.org/1999/xlink" width="976" height="310" viewBox="0 0 976 310"><desc># Generated by mscgen_js - https://sverweij.github.io/mscgen_js
msc {
# options
hscale="1.5";
# entities
c [label="Client", textbgcolor="lime"],
rails [label="Rails", textbgcolor="cyan"],
etag [label="EtagCaching", textbgcolor="orange"],
redis [label="Redis", textbgcolor="white"];
# arcs
c => rails [label="GET /projects/5/pipelines"];
rails => etag [label="GET /projects/5/pipelines"];
etag => redis [label="read(key = 'GET &lt;Etag>')"];
redis => etag [label="cache hit", linecolor="green", textcolor="green"];
|||;
etag => c [label="304 Not Modified", linecolor="blue", textcolor="blue"];
}</desc><defs><style>svg.mscgen_js-svg-__svg{font-family:Helvetica,sans-serif;font-size:12px;font-weight:400;font-style:normal;text-decoration:none;background-color:#fff;stroke:#000;stroke-width:2;color:#000}.mscgen_js-svg-__svg path,.mscgen_js-svg-__svg rect{fill:none;color:#000;stroke:#000}.mscgen_js-svg-__svg .label-text-background{fill:#fff;stroke:#fff;stroke-width:0}.mscgen_js-svg-__svg .bglayer{fill:#fff;stroke:#fff;stroke-width:0}.mscgen_js-svg-__svg line{stroke:#000}.mscgen_js-svg-__svg .return,.mscgen_js-svg-__svg .comment{stroke-dasharray:5,3}.mscgen_js-svg-__svg .inline_expression_divider{stroke-dasharray:10,5}.mscgen_js-svg-__svg text{color:inherit;stroke:none;text-anchor:middle}.mscgen_js-svg-__svg text.entity-text{text-decoration:underline}.mscgen_js-svg-__svg text.anchor-start{text-anchor:start}.mscgen_js-svg-__svg .arrow-marker{overflow:visible}.mscgen_js-svg-__svg .arrow-style{stroke-width:1}.mscgen_js-svg-__svg .arcrow,.mscgen_js-svg-__svg .arcrowomit,.mscgen_js-svg-__svg .emphasised{stroke-linecap:butt}.mscgen_js-svg-__svg .arcrowomit{stroke-dasharray:2,2}.mscgen_js-svg-__svg .box,.mscgen_js-svg-__svg .entity{fill:#fff;stroke-linejoin:round}.mscgen_js-svg-__svg .inherit{stroke:inherit;color:inherit}.mscgen_js-svg-__svg .inherit-fill{fill:inherit}.mscgen_js-svg-__svg .watermark{stroke:#000;color:#000;fill:#000;font-size:48pt;font-weight:700;opacity:.14}</style><marker orient="auto" id="mscgen_js-svg-__svgmethod-black" class="arrow-marker" viewBox="0 0 10 10" refX="9" refY="3" markerUnits="strokeWidth" markerWidth="10" markerHeight="10"><polygon points="1,1 9,3 1,5" class="arrow-style" stroke="#000" fill="#000"/></marker><marker orient="auto" id="mscgen_js-svg-__svgmethod-l-black" class="arrow-marker" viewBox="0 0 10 10" refX="9" refY="3" markerUnits="strokeWidth" markerWidth="10" markerHeight="10"><polygon points="17,1 9,3 17,5" class="arrow-style" stroke="#000" fill="#000"/></marker><marker orient="auto" id="mscgen_js-svg-__svgmethod-blue" class="arrow-marker" viewBox="0 0 10 10" refX="9" refY="3" markerUnits="strokeWidth" markerWidth="10" markerHeight="10"><polygon points="1,1 9,3 1,5" class="arrow-style" stroke="blue" fill="blue"/></marker><marker orient="auto" id="mscgen_js-svg-__svgmethod-l-blue" class="arrow-marker" viewBox="0 0 10 10" refX="9" refY="3" markerUnits="strokeWidth" markerWidth="10" markerHeight="10"><polygon points="17,1 9,3 17,5" class="arrow-style" stroke="blue" fill="blue"/></marker><marker orient="auto" id="mscgen_js-svg-__svgmethod-green" class="arrow-marker" viewBox="0 0 10 10" refX="9" refY="3" markerUnits="strokeWidth" markerWidth="10" markerHeight="10"><polygon points="1,1 9,3 1,5" class="arrow-style" stroke="green" fill="green"/></marker><marker orient="auto" id="mscgen_js-svg-__svgmethod-l-green" class="arrow-marker" viewBox="0 0 10 10" refX="9" refY="3" markerUnits="strokeWidth" markerWidth="10" markerHeight="10"><polygon points="17,1 9,3 17,5" class="arrow-style" stroke="green" fill="green"/></marker></defs><g id="mscgen_js-svg-__svg__body" transform="translate(53,3) scale(1,1)"><g id="mscgen_js-svg-__svg__background"><rect width="976" height="310" x="-53" y="-3" class="bglayer"/></g><g id="mscgen_js-svg-__svg__arcspanlayer"/><g id="mscgen_js-svg-__svg__lifelinelayer"><line x1="75" y1="38" x2="75" y2="76" class="arcrow"/><line x1="315" y1="38" x2="315" y2="76" class="arcrow"/><line x1="555" y1="38" x2="555" y2="76" class="arcrow"/><line x1="795" y1="38" x2="795" y2="76" class="arcrow"/><line x1="75" y1="76" x2="75" y2="114" class="arcrow"/><line x1="315" y1="76" x2="315" y2="114" class="arcrow"/><line x1="555" y1="76" x2="555" y2="114" class="arcrow"/><line x1="795" y1="76" x2="795" y2="114" class="arcrow"/><line x1="75" y1="114" x2="75" y2="152" class="arcrow"/><line x1="315" y1="114" x2="315" y2="152" class="arcrow"/><line x1="555" y1="114" x2="555" y2="152" class="arcrow"/><line x1="795" y1="114" x2="795" y2="152" class="arcrow"/><line x1="75" y1="152" x2="75" y2="190" class="arcrow"/><line x1="315" y1="152" x2="315" y2="190" class="arcrow"/><line x1="555" y1="152" x2="555" y2="190" class="arcrow"/><line x1="795" y1="152" x2="795" y2="190" class="arcrow"/><line x1="75" y1="190" x2="75" y2="228" class="arcrow"/><line x1="315" y1="190" x2="315" y2="228" class="arcrow"/><line x1="555" y1="190" x2="555" y2="228" class="arcrow"/><line x1="795" y1="190" x2="795" y2="228" class="arcrow"/><line x1="75" y1="228" x2="75" y2="266" class="arcrow"/><line x1="315" y1="228" x2="315" y2="266" class="arcrow"/><line x1="555" y1="228" x2="555" y2="266" class="arcrow"/><line x1="795" y1="228" x2="795" y2="266" class="arcrow"/><line x1="75" y1="266" x2="75" y2="304" class="arcrow"/><line x1="315" y1="266" x2="315" y2="304" class="arcrow"/><line x1="555" y1="266" x2="555" y2="304" class="arcrow"/><line x1="795" y1="266" x2="795" y2="304" class="arcrow"/></g><g id="mscgen_js-svg-__svg__sequencelayer"><g id="mscgen_js-svg-__svgentities"><g><rect width="150" height="38" class="entity" style="fill:lime"/><g><text x="75" y="22.5" class="entity-text"><tspan>Client</tspan></text></g></g><g><rect width="150" height="38" x="240" class="entity" style="fill:cyan"/><g><text x="315" y="22.5" class="entity-text"><tspan>Rails</tspan></text></g></g><g><rect width="150" height="38" x="480" class="entity" style="fill:orange"/><g><text x="555" y="22.5" class="entity-text"><tspan>EtagCaching</tspan></text></g></g><g><rect width="150" height="38" x="720" class="entity" style="fill:#fff"/><g><text x="795" y="22.5" class="entity-text"><tspan>Redis</tspan></text></g></g></g><g><line x1="75" y1="95" x2="315" y2="95" class="arc directional method" style="stroke:#000" marker-end="url(#mscgen_js-svg-__svgmethod-black)"/><g><rect width="134.06" height="14" x="127.97" y="79.5" class="label-text-background"/><text x="195" y="90.5" class="directional-text method-text"><tspan>GET /projects/5/pipelines</tspan></text></g></g><g><line x1="315" y1="133" x2="555" y2="133" class="arc directional method" style="stroke:#000" marker-end="url(#mscgen_js-svg-__svgmethod-black)"/><g><rect width="134.06" height="14" x="367.97" y="117.5" class="label-text-background"/><text x="435" y="128.5" class="directional-text method-text"><tspan>GET /projects/5/pipelines</tspan></text></g></g><g><line x1="555" y1="171" x2="795" y2="171" class="arc directional method" style="stroke:#000" marker-end="url(#mscgen_js-svg-__svgmethod-black)"/><g><rect width="135.64" height="14" x="607.17" y="155.5" class="label-text-background"/><text x="675" y="166.5" class="directional-text method-text"><tspan>read(key = 'GET &lt;Etag>')</tspan></text></g></g><g><line x1="795" y1="209" x2="555" y2="209" class="arc directional method" style="stroke:green" marker-end="url(#mscgen_js-svg-__svgmethod-green)"/><g><rect width="48.02" height="14" x="650.98" y="193.5" class="label-text-background"/><text x="675" y="204.5" class="directional-text method-text" style="fill:green"><tspan>cache hit</tspan></text></g></g><g/><g><line x1="555" y1="285" x2="75" y2="285" class="arc directional method" style="stroke:blue" marker-end="url(#mscgen_js-svg-__svgmethod-blue)"/><g><rect width="90.72" height="14" x="269.63" y="269.5" class="label-text-background"/><text x="315" y="280.5" class="directional-text method-text" style="fill:blue"><tspan>304 Not Modified</tspan></text></g></g></g><g id="mscgen_js-svg-__svg__notelayer"/><g id="mscgen_js-svg-__svg__watermark"/></g></svg>