<svg version="1.2" width="210mm" height="297mm" viewBox="0 0 21e3 29700" preserveAspectRatio="xMidYMid" fill-rule="evenodd" stroke-width="28.222" stroke-linejoin="round" xmlns="http://www.w3.org/2000/svg"><defs class="ClipPathGroup"><clipPath id="a" clipPathUnits="userSpaceOnUse"><path d="M0 0h21e3v297e2H0z"/></clipPath></defs><g class="SlideGroup"><g class="Slide" clip-path="url(#a)"><g class="Page"><g class="com.sun.star.drawing.CustomShape"><path class="BoundingBox" fill="none" d="M1975 5575h3051v1651H1975z"/><path fill="#fff" d="M35e2 72e2H2e3V56e2h3e3v16e2H35e2z"/><path fill="none" stroke="#3465a4" stroke-width="50" d="M35e2 72e2H2e3V56e2h3e3v16e2H35e2z"/><text class="TextShape"><tspan class="TextParagraph" font-family="Arial, sans-serif" font-size="423" font-weight="400"><tspan class="TextPosition" x="2778" y="6311"><tspan>Snippet</tspan></tspan><tspan class="TextPosition" x="2099" y="6785"><tspan>(ActiveRecord)</tspan></tspan></tspan></text></g><g class="com.sun.star.drawing.CustomShape"><path class="BoundingBox" fill="none" d="M1475 3975h4051v3551H1475z"/><path fill="none" stroke="#3465a4" stroke-width="50" d="M35e2 75e2H15e2V4e3h4e3v35e2H35e2z"/><text class="TextShape"><tspan class="TextParagraph" font-family="Arial, sans-serif" font-size="423" font-weight="400"><tspan class="TextPosition" x="1788" y="5048"><tspan>ApplicationSearch</tspan></tspan></tspan></text></g><g class="com.sun.star.drawing.ConnectorShape"><path class="BoundingBox" fill="none" d="M5975 4675h8051v701H5975z"/><path fill="none" stroke="#3465a4" stroke-width="50" d="M6e3 5350h4e3v-650h4e3"/></g><g class="com.sun.star.drawing.ConnectorShape"><path class="BoundingBox" fill="none" d="M5975 5325h8051v1101H5975z"/><path fill="none" stroke="#3465a4" stroke-width="50" d="M6e3 5350h4e3v1050h4e3"/></g><g class="com.sun.star.drawing.CustomShape"><path class="BoundingBox" fill="none" d="M1075 2875h4951v4951H1075z"/><path fill="none" stroke="#f33" stroke-width="50" d="M3550 78e2H11e2V29e2H6e3v49e2H3550z"/><text class="TextShape"><tspan class="TextParagraph" font-family="Arial, sans-serif" font-size="423" font-weight="700"><tspan class="TextPosition" x="1946" y="3514"><tspan fill="#c9211e">SnippetsSearch</tspan></tspan></tspan></text></g><g class="com.sun.star.drawing.CustomShape"><path class="BoundingBox" fill="none" d="M1975 12175h3051v1651H1975z"/><path fill="#fff" d="M35e2 138e2H2e3v-16e2h3e3v16e2H35e2z"/><path fill="none" stroke="#3465a4" stroke-width="50" d="M35e2 138e2H2e3v-16e2h3e3v16e2H35e2z"/><text class="TextShape"><tspan class="TextParagraph" font-family="Arial, sans-serif" font-size="423" font-weight="400"><tspan class="TextPosition" x="2778" y="12911"><tspan>Snippet</tspan></tspan><tspan class="TextPosition" x="2099" y="13385"><tspan>(ActiveRecord)</tspan></tspan></tspan></text></g><g class="com.sun.star.drawing.CustomShape"><path class="BoundingBox" fill="none" d="M1075 10775h4951v3251H1075z"/><path fill="none" stroke="#3465a4" stroke-width="50" d="M3550 14e3H11e2v-32e2H6e3v32e2H3550z"/><text class="TextShape"><tspan class="TextParagraph" font-family="Arial, sans-serif" font-size="423" font-weight="400"><tspan class="TextPosition" x="2511" y="11461"><tspan>Application</tspan></tspan><tspan class="TextPosition" x="1933" y="11935"><tspan>VersionedSearch</tspan></tspan></tspan></text></g><g class="com.sun.star.drawing.ConnectorShape"><path class="BoundingBox" fill="none" d="M3525 13975h4501v7451H3525z"/><path fill="none" stroke="#3465a4" stroke-width="50" d="M3550 14e3v74e2H8e3"/></g><g class="com.sun.star.drawing.CustomShape"><path class="BoundingBox" fill="none" d="M14008 14075h4985v851h-4985z"/><path fill="none" stroke="#999" stroke-width="50" d="M165e2 149e2h-2467v-8e2h4934v8e2h-2467z"/><text class="TextShape"><tspan class="TextParagraph" font-family="Arial, sans-serif" font-size="423" font-weight="400"><tspan class="TextPosition" x="14720" y="14648"><tspan fill="gray">ClassMethodProxy</tspan></tspan></tspan></text></g><g class="com.sun.star.drawing.CustomShape"><path class="BoundingBox" fill="none" d="M13375 13075h6251v2151h-6251z"/><path fill="none" stroke="#f33" stroke-width="50" d="M165e2 152e2h-31e2v-21e2h62e2v21e2h-31e2z"/><text class="TextShape"><tspan class="TextParagraph" font-family="Arial, sans-serif" font-size="423" font-weight="700"><tspan class="TextPosition" x="13799" y="13731"><tspan fill="#c9211e">V12p1::SnippetClassProxy</tspan></tspan></tspan></text></g><g class="com.sun.star.drawing.CustomShape"><path class="BoundingBox" fill="none" d="M7975 14575h3051v1851H7975z"/><path fill="none" stroke="#3465a4" stroke-width="50" d="M95e2 164e2H8e3v-18e2h3e3v18e2H95e2z"/><text class="TextShape"><tspan class="TextParagraph" font-family="Arial, sans-serif" font-size="423" font-weight="400"><tspan class="TextPosition" x="8277" y="15411"><tspan>MultiVersion-</tspan></tspan><tspan class="TextPosition" x="8429" y="15885"><tspan>ClassProxy</tspan></tspan></tspan></text></g><g class="com.sun.star.drawing.CustomShape"><path class="BoundingBox" fill="none" d="M14008 16875h4985v851h-4985z"/><path fill="none" stroke="#999" stroke-width="50" d="M165e2 177e2h-2467v-8e2h4934v8e2h-2467z"/><text class="TextShape"><tspan class="TextParagraph" font-family="Arial, sans-serif" font-size="423" font-weight="400"><tspan class="TextPosition" x="14720" y="17448"><tspan fill="gray">ClassMethodProxy</tspan></tspan></tspan></text></g><g class="com.sun.star.drawing.CustomShape"><path class="BoundingBox" fill="none" d="M13375 15875h6251v2151h-6251z"/><path fill="none" stroke="#f33" stroke-width="50" d="M165e2 18e3h-31e2v-21e2h62e2v21e2h-31e2z"/><text class="TextShape"><tspan class="TextParagraph" font-family="Arial, sans-serif" font-size="423" font-weight="700"><tspan class="TextPosition" x="13799" y="16531"><tspan fill="#c9211e">V12p2::SnippetClassProxy</tspan></tspan></tspan></text></g><g class="com.sun.star.drawing.ConnectorShape"><path class="BoundingBox" fill="none" d="M10975 14125h2451v1401h-2451z"/><path fill="none" stroke="#3465a4" stroke-width="50" d="M11e3 155e2h1463v-1350h937"/></g><g class="com.sun.star.drawing.ConnectorShape"><path class="BoundingBox" fill="none" d="M10975 15475h2451v1501h-2451z"/><path fill="none" stroke="#3465a4" stroke-width="50" d="M11e3 155e2h1463v1450h937"/></g><g class="com.sun.star.drawing.ConnectorShape"><path class="BoundingBox" fill="none" d="M3525 13975h4501v1551H3525z"/><path fill="none" stroke="#3465a4" stroke-width="50" d="M3550 14e3v15e2H8e3"/></g><g class="com.sun.star.drawing.CustomShape"><path class="BoundingBox" fill="none" d="M14008 19975h4985v851h-4985z"/><path fill="none" stroke="#999" stroke-width="50" d="M165e2 208e2h-2467V2e4h4934v8e2h-2467z"/><text class="TextShape"><tspan class="TextParagraph" font-family="Arial, sans-serif" font-size="423" font-weight="400"><tspan class="TextPosition" x="14445" y="20548"><tspan fill="gray">InstanceMethodProxy</tspan></tspan></tspan></text></g><g class="com.sun.star.drawing.CustomShape"><path class="BoundingBox" fill="none" d="M13375 18975h6251v2151h-6251z"/><path fill="none" stroke="#f33" stroke-width="50" d="M165e2 211e2h-31e2V19e3h62e2v21e2h-31e2z"/><text class="TextShape"><tspan class="TextParagraph" font-family="Arial, sans-serif" font-size="423" font-weight="700"><tspan class="TextPosition" x="13505" y="19631"><tspan fill="#c9211e">V12p1::SnippetInstanceProxy</tspan></tspan></tspan></text></g><g class="com.sun.star.drawing.CustomShape"><path class="BoundingBox" fill="none" d="M7975 20275h3051v2251H7975z"/><path fill="none" stroke="#3465a4" stroke-width="50" d="M95e2 225e2H8e3v-22e2h3e3v22e2H95e2z"/><text class="TextShape"><tspan class="TextParagraph" font-family="Arial, sans-serif" font-size="423" font-weight="400"><tspan class="TextPosition" x="8277" y="21311"><tspan>MultiVersion-</tspan></tspan><tspan class="TextPosition" x="8154" y="21785"><tspan>InstanceProxy</tspan></tspan></tspan></text></g><g class="com.sun.star.drawing.CustomShape"><path class="BoundingBox" fill="none" d="M14008 22775h4985v851h-4985z"/><path fill="none" stroke="#999" stroke-width="50" d="M165e2 236e2h-2467v-8e2h4934v8e2h-2467z"/><text class="TextShape"><tspan class="TextParagraph" font-family="Arial, sans-serif" font-size="423" font-weight="400"><tspan class="TextPosition" x="14445" y="23348"><tspan fill="gray">InstanceMethodProxy</tspan></tspan></tspan></text></g><g class="com.sun.star.drawing.CustomShape"><path class="BoundingBox" fill="none" d="M13375 21775h6251v2151h-6251z"/><path fill="none" stroke="#f33" stroke-width="50" d="M165e2 239e2h-31e2v-21e2h62e2v21e2h-31e2z"/><text class="TextShape"><tspan class="TextParagraph" font-family="Arial, sans-serif" font-size="423" font-weight="700"><tspan class="TextPosition" x="13505" y="22431"><tspan fill="#c9211e">V12p2::SnippetInstanceProxy</tspan></tspan></tspan></text></g><g class="com.sun.star.drawing.ConnectorShape"><path class="BoundingBox" fill="none" d="M10975 20025h2451v1401h-2451z"/><path fill="none" stroke="#3465a4" stroke-width="50" d="M11e3 214e2h1463v-1350h937"/></g><g class="com.sun.star.drawing.ConnectorShape"><path class="BoundingBox" fill="none" d="M10975 21375h2451v1501h-2451z"/><path fill="none" stroke="#3465a4" stroke-width="50" d="M11e3 214e2h1463v1450h937"/></g><g class="com.sun.star.drawing.TextShape"><path class="BoundingBox" fill="none" d="M9e2 16e2h10697v879H9e2z"/><text class="TextShape"><tspan class="TextParagraph" font-family="Arial, sans-serif" font-size="564" font-weight="400"><tspan class="TextPosition" x="1150" y="2233"><tspan>Standard elasticsearch-rails setup</tspan></tspan></tspan></text></g><g class="com.sun.star.drawing.TextShape"><path class="BoundingBox" fill="none" d="M9e2 93e2h7683v879H9e2z"/><text class="TextShape"><tspan class="TextParagraph" font-family="Arial, sans-serif" font-size="564" font-weight="400"><tspan class="TextPosition" x="1150" y="9933"><tspan>GitLab multi-indices setup</tspan></tspan></tspan></text></g><g class="com.sun.star.drawing.TextShape"><path class="BoundingBox" fill="none" d="M34e2 213e2h4821v1197H34e2z"/><text class="TextShape"><tspan class="TextParagraph" font-size="388" font-weight="400"><tspan class="TextPosition" x="4250" y="21840"><tspan fill="gray">(instance method)</tspan></tspan><tspan class="TextPosition" x="3651" y="22264"><tspan font-family="Courier" font-size="423">__elasticsearch__</tspan></tspan></tspan></text></g><g class="com.sun.star.drawing.TextShape"><path class="BoundingBox" fill="none" d="M3380 154e2h4821v1197H3380z"/><text class="TextShape"><tspan class="TextParagraph" font-size="388" font-weight="400"><tspan class="TextPosition" x="4512" y="15940"><tspan fill="gray">(class method)</tspan></tspan><tspan class="TextPosition" x="3631" y="16364"><tspan font-family="Courier" font-size="423">__elasticsearch__</tspan></tspan></tspan></text></g><g class="com.sun.star.drawing.TextShape"><path class="BoundingBox" fill="none" d="M9e3 35e2h4821v1197H9e3z"/><text class="TextShape"><tspan class="TextParagraph" font-size="388" font-weight="400"><tspan class="TextPosition" x="10132" y="4040"><tspan fill="gray">(class method)</tspan></tspan><tspan class="TextPosition" x="9251" y="4464"><tspan font-family="Courier" font-size="423">__elasticsearch__</tspan></tspan></tspan></text></g><g class="com.sun.star.drawing.TextShape"><path class="BoundingBox" fill="none" d="M9e3 64e2h4821v1197H9e3z"/><text class="TextShape"><tspan class="TextParagraph" font-size="388" font-weight="400"><tspan class="TextPosition" x="9850" y="6940"><tspan fill="gray">(instance method)</tspan></tspan><tspan class="TextPosition" x="9251" y="7364"><tspan font-family="Courier" font-size="423">__elasticsearch__</tspan></tspan></tspan></text></g><g class="com.sun.star.drawing.CustomShape"><path class="BoundingBox" fill="none" d="M1975 25175h2051v851H1975z"/><path fill="none" stroke="#999" stroke-width="50" d="M3e3 26e3H2e3v-8e2h2e3v8e2H3e3z"/><text class="TextShape"><tspan class="TextParagraph" font-family="Arial, sans-serif" font-size="423" font-weight="400"><tspan class="TextPosition" x="2634" y="25748"><tspan fill="gray">Foo</tspan></tspan></tspan></text></g><g class="com.sun.star.drawing.TextShape"><path class="BoundingBox" fill="none" d="M44e2 252e2h7101v726H44e2z"/><text class="TextShape"><tspan class="TextParagraph" font-family="Arial, sans-serif" font-size="423" font-weight="400"><tspan class="TextPosition" x="4650" y="25710"><tspan>elasticsearch-rails' internal class</tspan></tspan></tspan></text></g><g class="com.sun.star.drawing.TextShape"><path class="BoundingBox" fill="none" d="M44e2 264e2h8601v12e2H44e2z"/><text class="TextShape"><tspan class="TextParagraph" font-family="Arial, sans-serif" font-size="423" font-weight="400"><tspan class="TextPosition" x="4650" y="26910"><tspan>where model-specific logic is</tspan></tspan></tspan></text></g><g class="com.sun.star.drawing.CustomShape"><path class="BoundingBox" fill="none" d="M1975 26275h2051v851H1975z"/><path fill="none" stroke="#f33" stroke-width="50" d="M3e3 271e2H2e3v-8e2h2e3v8e2H3e3z"/><text class="TextShape"><tspan class="TextParagraph" font-family="Arial, sans-serif" font-size="423" font-weight="700"><tspan class="TextPosition" x="2613" y="26848"><tspan fill="#c9211e">Foo</tspan></tspan></tspan></text></g><g class="com.sun.star.drawing.TextShape"><path class="BoundingBox" fill="none" d="M49e2 17289h5901v2312H49e2z"/><text class="TextShape"><tspan class="TextParagraph" font-family="Arial, sans-serif" font-size="370" font-weight="400"><tspan class="TextPosition" x="7236" y="17748"><tspan fill="gray">Write operations like</tspan></tspan><tspan class="TextPosition" x="5323" y="18159"><tspan fill="gray">indexing/updating are forwarded</tspan></tspan><tspan class="TextPosition" x="8024" y="18570"><tspan fill="gray">to all instances.</tspan></tspan></tspan><tspan class="TextParagraph" font-family="Arial, sans-serif" font-size="370" font-weight="400"><tspan class="TextPosition" x="5501" y="18981"><tspan fill="gray">Read operations are forwarded</tspan></tspan><tspan class="TextPosition" x="7126" y="19392"><tspan fill="gray">to specified instance.</tspan></tspan></tspan></text></g><g class="com.sun.star.drawing.ConnectorShape"><path class="BoundingBox" fill="none" d="M10785 15769h1422v2691h-1422z"/><path fill="none" stroke="#999" stroke-width="30" d="M108e2 18444c1429 0 934-1618 1119-2337"/><path fill="#999" d="M12206 15769l-460 293 267 217 193-510z"/></g><g class="com.sun.star.drawing.ConnectorShape"><path class="BoundingBox" fill="none" d="M10785 18429h1528v2862h-1528z"/><path fill="none" stroke="#999" stroke-width="30" d="M108e2 18444c1509 0 970 1782 12e2 2526"/><path fill="#999" d="M12312 21290l-227-496-252 235 479 261z"/></g><g class="com.sun.star.drawing.TextShape"><path class="BoundingBox" fill="none" d="M18e2 24e3h7101v807H18e2z"/><text class="TextShape"><tspan class="TextParagraph" font-family="Arial, sans-serif" font-size="494" font-weight="700"><tspan class="TextPosition" x="2050" y="24574"><tspan>Legend</tspan></tspan></tspan></text></g><g class="com.sun.star.drawing.CustomShape"><path class="BoundingBox" fill="none" d="M13975 4275h5085v851h-5085z"/><path fill="none" stroke="#999" stroke-width="50" d="M16517 51e2H14e3v-8e2h5034v8e2h-2517z"/><text class="TextShape"><tspan class="TextParagraph" font-family="Arial, sans-serif" font-size="423" font-weight="400"><tspan class="TextPosition" x="14737" y="4848"><tspan fill="gray">ClassMethodProxy</tspan></tspan></tspan></text></g><g class="com.sun.star.drawing.CustomShape"><path class="BoundingBox" fill="none" d="M13975 5975h5085v851h-5085z"/><path fill="none" stroke="#999" stroke-width="50" d="M16517 68e2H14e3V6e3h5034v8e2h-2517z"/><text class="TextShape"><tspan class="TextParagraph" font-family="Arial, sans-serif" font-size="423" font-weight="400"><tspan class="TextPosition" x="14462" y="6548"><tspan fill="gray">InstanceMethodProxy</tspan></tspan></tspan></text></g></g></g></g></svg>